<?xml version="1.0" standalone="no"?>
<!DOCTYPE svg PUBLIC "-//W3C//DTD SVG 20010904//EN"
 "http://www.w3.org/TR/2001/REC-SVG-20010904/DTD/svg10.dtd">
<svg version="1.0" xmlns="http://www.w3.org/2000/svg"
 width="1024.000000pt" height="1024.000000pt" viewBox="0 0 1024.000000 1024.000000"
 preserveAspectRatio="xMidYMid meet">

<g transform="translate(0.000000,1024.000000) scale(0.100000,-0.100000)"
fill="#000000" stroke="none">
<path d="M5043 8733 c34 -14 37 -19 37 -54 0 -39 0 -39 -40 -39 -33 0 -40 3
-40 20 0 13 7 20 20 20 32 0 24 33 -11 49 -35 15 -219 7 -219 -11 0 -5 -4 -7
-10 -3 -5 3 -40 3 -77 -1 -47 -5 -61 -10 -48 -15 11 -4 16 -8 10 -8 -5 -1 -3
-5 5 -11 20 -12 11 -18 -33 -23 -25 -3 -37 0 -37 8 0 7 -9 15 -20 18 -24 6
-140 -14 -140 -25 0 -4 13 -5 29 -2 17 4 32 1 36 -6 5 -8 -13 -11 -66 -10 -86
2 -181 -9 -174 -20 3 -5 -5 -6 -17 -2 -14 3 -19 1 -14 -6 4 -7 2 -10 -7 -6 -8
3 -58 -9 -111 -26 -78 -25 -96 -35 -92 -47 5 -13 4 -14 -8 -4 -11 9 -22 9 -48
-3 -25 -11 -28 -15 -13 -15 12 -1 26 4 32 10 8 8 17 5 33 -11 26 -26 24 -29
-21 -33 -29 -2 -34 -6 -37 -31 -3 -25 -1 -28 17 -23 17 4 21 1 21 -19 0 -17
-6 -24 -20 -24 -11 0 -20 5 -20 10 0 6 -18 10 -40 10 -33 0 -40 -3 -40 -20 0
-11 -4 -20 -10 -20 -5 0 -10 9 -10 20 0 11 -4 20 -10 20 -5 0 -10 -18 -10 -40
l0 -40 -40 0 c-29 0 -40 4 -40 15 0 8 -7 15 -15 15 -8 0 -15 -7 -15 -15 0 -9
-9 -15 -22 -15 -24 0 -63 -20 -40 -20 7 0 12 -13 12 -30 l0 -30 -80 0 c-59 0
-80 3 -79 13 3 24 -1 37 -12 37 -5 0 -8 -4 -5 -8 7 -11 -37 -9 -45 2 -4 4 -16
-1 -28 -13 -11 -11 -21 -19 -21 -16 0 10 -61 -26 -66 -39 -3 -7 -10 -13 -17
-13 -20 0 -97 -55 -91 -64 3 -5 -1 -6 -9 -3 -8 3 -18 0 -23 -7 -4 -8 -3 -10 4
-5 7 4 12 2 12 -5 0 -6 -8 -9 -20 -6 -11 3 -23 0 -27 -5 -4 -7 -1 -8 8 -3 10
6 11 5 3 -4 -6 -6 -21 -13 -33 -16 -13 -2 -29 -9 -37 -16 -17 -14 -19 -42 -1
-36 6 2 11 11 9 19 -4 25 29 32 35 8 6 -23 43 -27 43 -5 0 8 6 15 14 15 9 0
12 7 9 20 -6 24 25 40 37 19 5 -7 13 -10 17 -5 4 5 2 11 -4 13 -16 6 -17 39
-3 48 6 4 17 2 24 -5 8 -6 26 -8 40 -4 l26 6 0 -81 0 -81 -120 0 -120 0 0 -40
0 -40 -40 0 -40 0 0 -40 0 -40 60 0 c53 0 60 -2 60 -20 0 -13 7 -20 20 -20 18
0 20 -7 20 -60 l0 -60 80 0 80 0 0 -35 c0 -19 5 -35 10 -35 6 0 10 -4 10 -9 0
-5 -9 -7 -20 -4 -12 3 -20 0 -20 -6 0 -7 4 -10 9 -6 5 3 12 1 16 -5 3 -5 -10
-16 -30 -24 -19 -8 -35 -20 -35 -26 0 -6 -4 -9 -10 -5 -5 3 -7 12 -3 20 3 9
-1 15 -11 15 -18 0 -22 -15 -6 -25 6 -4 8 -10 6 -14 -11 -17 30 -7 42 11 7 10
18 18 23 18 28 0 79 54 88 93 l11 42 -5 -38 -4 -38 29 21 c16 12 29 26 27 32
-1 6 4 13 12 16 9 3 11 0 7 -9 -4 -8 0 -5 8 5 9 11 16 17 16 13 0 -4 10 -2 22
4 22 12 22 12 3 21 -18 7 -17 8 3 4 14 -3 31 3 41 12 10 9 23 18 29 20 7 1 31
14 55 30 41 26 59 52 35 52 -6 0 -9 2 -6 5 9 10 38 -7 31 -17 -3 -6 8 -3 25 7
17 10 33 27 35 37 3 10 13 17 24 17 16 -1 16 -2 1 -6 -10 -2 -18 -9 -18 -14 0
-5 35 8 78 30 83 42 189 88 265 115 26 10 45 21 42 25 -2 5 10 8 27 9 17 0 35
7 39 14 5 7 21 14 36 14 15 1 60 11 98 23 39 12 75 23 81 23 6 1 11 7 11 14 0
7 -5 12 -10 11 -5 -1 -12 4 -14 11 -3 7 4 12 15 12 11 0 23 6 25 13 4 10 6 10
6 0 1 -7 10 -13 22 -13 15 0 19 -5 15 -15 -4 -11 1 -15 17 -14 12 0 16 3 9 6
-17 7 -5 23 19 23 13 0 18 -4 13 -12 -5 -8 2 -9 27 -4 91 18 243 37 377 47
158 11 537 9 518 -3 -6 -4 3 -8 21 -8 52 0 292 -38 377 -60 90 -23 97 -24 76
-9 -12 8 -10 9 7 4 12 -3 31 -1 43 5 12 7 26 7 36 2 12 -7 6 -11 -27 -17 l-44
-7 45 -13 c25 -7 89 -28 142 -47 71 -25 94 -30 86 -19 -7 9 -1 6 12 -6 31 -27
78 -45 93 -36 7 3 9 2 4 -2 -4 -5 7 -15 25 -22 25 -11 33 -11 41 -1 7 10 8 9
4 -2 -3 -10 14 -23 57 -42 49 -23 56 -24 37 -8 -28 24 -15 27 17 4 12 -8 20
-19 17 -24 -3 -5 5 -14 17 -20 22 -11 22 -10 4 4 -19 16 -19 16 2 16 15 0 22
-6 22 -20 0 -11 6 -20 13 -21 6 -1 23 -2 36 -2 13 -1 26 -9 29 -17 4 -11 2
-13 -9 -5 -8 6 -6 2 5 -8 10 -10 26 -15 33 -13 9 4 11 1 7 -5 -4 -8 1 -9 16
-4 20 6 22 4 16 -11 -4 -10 -4 -15 0 -11 4 4 13 -1 20 -11 12 -15 15 -15 25
-2 9 13 10 12 5 -2 -7 -22 23 -39 54 -31 16 4 21 3 16 -6 -4 -6 -12 -8 -18 -5
-7 5 -8 2 -4 -5 5 -7 14 -10 22 -7 8 3 13 0 11 -7 -1 -8 10 -11 33 -10 24 2
31 -1 20 -7 -8 -5 -19 -6 -25 -3 -5 2 1 -4 15 -16 23 -18 26 -18 32 -3 6 16 8
13 12 -18 1 -14 13 -17 23 -6 5 5 2 6 -6 1 -10 -5 -12 -4 -7 4 4 6 12 9 17 5
5 -3 7 -10 3 -15 -8 -14 17 -41 33 -35 8 3 12 2 8 -3 -6 -11 163 -147 177
-143 5 1 7 -1 4 -6 -3 -5 26 -36 64 -70 37 -34 70 -58 73 -54 2 4 3 2 1 -4 -1
-6 19 -31 44 -55 26 -24 42 -38 35 -30 -9 11 -9 17 2 27 18 19 25 18 26 -3 0
-15 2 -15 9 2 5 11 9 14 9 8 1 -10 28 -13 101 -13 l100 0 0 60 c0 53 -2 60
-20 60 -18 0 -20 7 -20 80 l0 80 -40 0 -40 0 0 80 c0 73 -2 80 -20 80 -17 0
-20 7 -20 40 0 33 -3 40 -20 40 -16 0 -20 7 -20 34 0 19 6 37 13 39 6 3 -30 6
-81 6 l-93 1 2 97 1 97 20 -24 c14 -17 21 -20 28 -12 6 7 7 10 4 7 -4 -3 -15
4 -24 15 -10 11 -24 18 -32 15 -8 -3 -21 1 -28 10 -11 13 -10 15 6 9 14 -4 13
-1 -6 15 -14 11 -31 19 -38 16 -7 -3 -11 -1 -7 4 7 12 -85 75 -108 73 -9 0
-15 3 -12 8 3 5 0 12 -6 16 -7 4 -9 3 -5 -4 3 -6 1 -14 -5 -18 -6 -3 -15 0
-20 7 -4 8 -4 16 2 20 11 7 -7 20 -93 68 -32 17 -58 28 -58 24 0 -4 -7 2 -15
13 -9 10 -14 13 -13 5 2 -7 -2 -15 -9 -18 -8 -3 -11 3 -8 18 2 12 2 19 -2 16
-3 -3 -12 1 -21 9 -10 11 -18 12 -25 5 -6 -6 -18 -11 -26 -11 -14 1 -14 2 1
13 15 12 15 14 -3 25 -32 20 -130 62 -125 53 3 -4 -1 -8 -9 -8 -8 0 -11 5 -8
10 8 14 -19 28 -41 21 -11 -4 -16 -2 -13 3 4 6 -5 15 -18 21 -15 7 -25 8 -25
2 0 -6 6 -10 14 -10 19 0 27 -25 13 -39 -9 -9 -4 -11 18 -9 36 2 55 -7 55 -28
0 -8 10 -14 25 -14 14 0 35 -9 47 -20 l22 -20 -108 0 -107 0 3 63 c2 46 -1 65
-12 75 -13 10 -13 11 3 6 9 -3 17 -2 17 4 0 13 -44 24 -48 13 -2 -6 -16 -6
-33 -1 -17 5 -43 7 -59 4 -23 -5 -28 -2 -32 20 -5 27 1 33 18 16 6 -6 19 -12
30 -15 10 -2 29 -7 42 -11 12 -3 22 -4 22 -1 0 3 -17 11 -37 17 -21 6 -53 19
-72 27 -49 22 -92 33 -86 22 4 -5 -3 -9 -14 -9 -12 0 -21 5 -21 11 0 5 6 7 13
3 8 -4 9 -4 2 3 -5 5 -22 14 -36 20 -24 11 -26 10 -21 -15 4 -21 2 -24 -12
-19 -10 4 -29 7 -42 7 -17 0 -24 6 -24 20 0 13 5 18 15 14 8 -4 15 -2 15 4 0
11 -47 25 -60 17 -4 -3 -10 -1 -12 4 -1 5 -64 23 -138 40 -188 44 -188 44
-170 31 11 -7 7 -10 -20 -9 -29 0 -31 2 -15 9 l20 9 -20 0 c-11 1 -30 4 -43 7
-16 5 -22 3 -20 -7 2 -10 -8 -14 -37 -12 -22 0 -30 -1 -17 -4 13 -3 22 -12 22
-24 0 -17 -8 -19 -100 -19 -82 0 -100 3 -100 15 0 8 -9 15 -20 15 -11 0 -20
-7 -20 -15 0 -8 -9 -15 -20 -15 -11 0 -20 7 -20 15 0 8 -9 15 -20 15 -11 0
-20 -4 -20 -10 0 -5 -4 -10 -10 -10 -5 0 -10 14 -10 30 0 27 -3 30 -32 30 -64
0 -17 12 59 15 206 8 82 24 -187 23 -203 0 -213 -1 -177 -15z m217 0 l-65 -4
3 -44 c3 -28 0 -45 -7 -45 -6 0 -11 19 -11 44 0 26 -5 46 -12 49 -7 3 25 5 72
4 76 -1 78 -1 20 -4z m117 1 c-3 -3 -12 -4 -19 -1 -8 3 -5 6 6 6 11 1 17 -2
13 -5z m-394 -12 c9 -4 -10 -8 -45 -9 -39 -1 -56 2 -47 8 16 10 66 11 92 1z
m-143 -42 c0 -33 -3 -40 -20 -40 -23 0 -28 34 -7 44 10 5 10 7 0 12 -20 9 -15
24 7 24 17 0 20 -7 20 -40z m-77 18 c-2 -5 -19 -8 -36 -8 -22 0 -28 3 -18 9
16 10 61 9 54 -1z m1227 -48 c-20 -13 -33 -13 -25 0 3 6 14 10 23 10 15 0 15
-2 2 -10z m150 -30 c8 -5 11 -12 8 -16 -4 -3 -14 1 -23 10 -18 17 -9 21 15 6z
m-1827 -7 c-7 -2 -19 -2 -25 0 -7 3 -2 5 12 5 14 0 19 -2 13 -5z m-71 -53 l78
0 0 -40 0 -40 -120 0 c-113 0 -120 1 -120 20 0 11 5 20 10 20 6 0 10 12 10 26
0 23 3 25 26 20 19 -5 24 -4 18 6 -5 10 -4 11 7 1 8 -8 42 -13 91 -13z m1918
10 c0 -5 -9 -10 -20 -10 -11 0 -20 5 -20 10 0 6 9 10 20 10 11 0 20 -4 20 -10z
m260 -39 c0 -4 -9 -7 -20 -8 -19 -2 -26 8 -14 20 7 7 34 -2 34 -12z m285 -111
c3 -5 1 -10 -4 -10 -6 0 -11 5 -11 10 0 6 2 10 4 10 3 0 8 -4 11 -10z m100
-44 c39 -17 46 -27 14 -21 -39 8 -59 16 -59 26 0 12 5 12 45 -5z m-3310 -141
c14 -13 25 -36 25 -50 0 -22 -4 -25 -39 -25 -39 0 -39 0 -43 45 -2 33 1 46 12
49 8 2 16 4 18 5 2 0 14 -10 27 -24z m3560 4 c11 -17 2 -18 -19 -3 -17 12 -17
14 -4 14 9 0 20 -5 23 -11z m40 -29 c-3 -5 -11 -10 -16 -10 -6 0 -7 5 -4 10 3
6 11 10 16 10 6 0 7 -4 4 -10z m-2329 -25 c-16 -17 -46 -20 -46 -6 0 8 13 13
53 20 5 0 2 -6 -7 -14z m59 5 c-3 -5 -13 -10 -21 -10 -8 0 -12 5 -9 10 3 6 13
10 21 10 8 0 12 -4 9 -10z m762 4 c-3 -3 -12 -4 -19 -1 -8 3 -5 6 6 6 11 1 17
-2 13 -5z m-2267 -12 c0 -13 -12 -22 -22 -16 -10 6 -1 24 13 24 5 0 9 -4 9 -8z
m2317 2 c-3 -3 -12 -4 -19 -1 -8 3 -5 6 6 6 11 1 17 -2 13 -5z m256 -31 c-7
-2 -21 -2 -30 0 -10 3 -4 5 12 5 17 0 24 -2 18 -5z m32 -13 c3 -5 -1 -10 -10
-10 -9 0 -13 5 -10 10 3 6 8 10 10 10 2 0 7 -4 10 -10z m1300 -10 c3 -6 -1 -7
-9 -4 -18 7 -21 14 -7 14 6 0 13 -4 16 -10z m38 -36 c-8 -20 -22 -17 -20 5 0
10 7 17 13 14 7 -3 10 -11 7 -19z m-1063 -31 c0 -16 4 -16 -45 2 l-40 14 42
-2 c27 -1 43 -7 43 -14z m-2215 -113 c-3 -5 -12 -10 -18 -10 -7 0 -6 4 3 10
19 12 23 12 15 0z m-317 -167 c-6 -7 -16 -13 -22 -12 -6 0 -5 3 3 6 11 5 11 7
0 14 -10 6 -7 8 8 6 17 -1 19 -4 11 -14z m-265 -178 c-3 -9 -8 -14 -10 -11 -3
3 -2 9 2 15 9 16 15 13 8 -4z m3734 -51 c-3 -3 -12 -4 -19 -1 -8 3 -5 6 6 6
11 1 17 -2 13 -5z m63 -5 c0 -7 -8 -17 -17 -24 -15 -11 -10 -12 30 -8 43 5 47
4 47 -16 0 -12 -6 -21 -15 -21 -9 0 -12 -6 -8 -17 4 -11 3 -14 -5 -9 -7 4 -12
16 -12 26 0 12 -5 17 -13 14 -21 -8 -62 30 -54 49 7 19 47 23 47 6z m160 -109
c0 -74 -9 -97 -26 -69 -12 20 -14 69 -3 69 6 0 7 4 4 10 -4 6 -16 5 -33 -4
l-27 -14 4 44 c3 44 3 44 42 44 l39 0 0 -80z m80 -170 c0 -5 -2 -10 -4 -10 -3
0 -8 5 -11 10 -3 6 -1 10 4 10 6 0 11 -4 11 -10z"/>
<path d="M5538 8733 c7 -3 16 -2 19 1 4 3 -2 6 -13 5 -11 0 -14 -3 -6 -6z"/>
<path d="M5578 8724 c-10 -3 -18 -14 -18 -25 0 -16 7 -19 40 -19 33 0 40 3 40
20 0 17 4 18 25 10 15 -6 34 -6 47 0 23 9 23 9 -3 9 -14 1 -46 3 -70 5 -24 3
-52 2 -61 0z"/>
<path d="M4603 8693 c9 -2 17 -9 17 -14 0 -5 7 -9 16 -9 14 0 14 3 4 15 -7 8
-22 14 -34 14 -17 -1 -17 -2 -3 -6z"/>
<path d="M4398 8653 c6 -2 18 -2 25 0 6 3 1 5 -13 5 -14 0 -19 -2 -12 -5z"/>
<path d="M3886 8497 l-30 -13 37 0 c20 0 32 3 26 7 -8 4 -7 8 2 12 8 3 10 6 4
6 -5 0 -23 -6 -39 -12z"/>
<path d="M3790 8455 c-14 -8 -20 -14 -15 -14 6 0 21 6 35 14 14 8 21 14 15 14
-5 0 -21 -6 -35 -14z"/>
<path d="M3732 8433 c-13 -5 -7 -23 9 -23 6 0 8 4 5 9 -4 5 0 12 6 14 7 3 9 5
3 5 -5 0 -16 -2 -23 -5z"/>
<path d="M3670 8399 c-19 -11 -27 -18 -16 -15 14 5 17 2 12 -9 -3 -9 -2 -13 4
-10 6 3 10 11 10 17 0 6 8 17 18 24 25 19 12 16 -28 -7z"/>
<path d="M3578 8354 c-27 -13 -48 -26 -48 -28 0 -2 12 -3 28 -2 16 1 26 6 25
14 -2 6 1 12 5 12 5 0 17 7 28 15 27 21 16 18 -38 -11z"/>
<path d="M3500 8310 c-8 -5 -12 -11 -9 -14 2 -3 11 -1 19 4 8 5 12 11 9 14 -2
3 -11 1 -19 -4z"/>
<path d="M3080 8045 c-2 -5 -2 -13 -1 -17 0 -4 -5 -5 -12 -2 -7 2 -22 -5 -33
-17 -19 -22 -19 -22 1 -12 11 6 30 9 43 7 24 -4 25 0 12 31 -5 11 -9 16 -10
10z"/>
<path d="M2990 7975 c-10 -12 -10 -15 2 -15 8 0 15 7 15 15 0 8 -1 15 -2 15
-2 0 -8 -7 -15 -15z"/>
<path d="M7428 7978 c7 -7 12 -22 12 -35 0 -13 5 -23 10 -23 6 0 10 7 10 15 0
8 4 15 10 15 5 0 7 -6 4 -14 -5 -14 52 -44 63 -32 4 4 -2 9 -14 12 -11 3 -30
19 -42 35 -12 16 -26 27 -32 24 -5 -4 -9 -1 -9 4 0 6 -5 11 -12 11 -9 0 -9 -3
0 -12z"/>
<path d="M2935 7930 c-3 -5 1 -10 9 -10 9 0 16 5 16 10 0 6 -4 10 -9 10 -6 0
-13 -4 -16 -10z"/>
<path d="M2884 7888 l-19 -23 25 20 c14 11 27 21 29 22 2 2 0 3 -6 3 -5 0 -18
-10 -29 -22z"/>
<path d="M7570 7869 c14 -12 24 -25 23 -29 -1 -4 5 -7 13 -7 11 0 11 4 -3 20
-10 10 -27 23 -38 28 -15 8 -14 5 5 -12z"/>
<path d="M2908 7833 c7 -3 16 -2 19 1 4 3 -2 6 -13 5 -11 0 -14 -3 -6 -6z"/>
<path d="M2766 7781 c-26 -27 -44 -51 -39 -54 5 -3 15 -2 23 4 9 5 10 9 3 9
-6 0 3 15 19 33 17 17 37 31 44 29 7 -1 15 2 19 8 4 6 -1 7 -11 3 -12 -4 -15
-3 -10 5 14 22 0 12 -48 -37z"/>
<path d="M7640 7805 c7 -9 15 -13 17 -11 7 7 -7 26 -19 26 -6 0 -6 -6 2 -15z"/>
<path d="M7600 7799 c0 -5 5 -7 10 -4 6 3 10 8 10 11 0 2 -4 4 -10 4 -5 0 -10
-5 -10 -11z"/>
<path d="M2850 7785 c-12 -14 -11 -18 1 -26 20 -12 34 -6 34 16 0 24 -19 30
-35 10z"/>
<path d="M5593 7780 c-109 -23 -214 -100 -228 -167 -4 -15 -13 -46 -20 -68 -8
-22 -17 -59 -21 -82 -8 -51 -13 -55 -86 -81 -111 -39 -193 -115 -245 -228
l-27 -59 3 -310 c2 -268 4 -315 19 -345 24 -50 70 -72 158 -78 41 -2 74 -7 74
-9 0 -12 -31 -61 -49 -77 -19 -17 -30 -18 -128 -10 -181 15 -289 11 -368 -14
-88 -26 -171 -83 -210 -143 l-30 -46 -160 -6 c-140 -6 -260 -21 -331 -42 -19
-6 -22 -2 -27 47 -12 98 -7 395 8 515 21 163 20 159 57 128 37 -31 67 -39 124
-32 58 6 116 45 139 94 25 50 26 137 3 182 -10 19 -18 35 -18 37 0 1 55 4 123
5 100 3 129 8 162 25 53 28 69 68 37 94 -21 17 -40 18 -250 13 -245 -5 -316
-16 -390 -59 -99 -58 -222 -217 -307 -396 -118 -250 -176 -532 -178 -863 -2
-378 42 -409 573 -409 249 0 285 2 380 22 57 13 138 36 179 52 41 16 75 28 76
27 10 -30 91 -126 139 -166 79 -64 124 -114 143 -159 8 -18 34 -110 59 -204
96 -364 154 -461 399 -663 55 -46 111 -95 124 -109 l24 -26 -116 0 -117 0 0
-63 c0 -117 -40 -200 -123 -255 -40 -27 -44 -27 -241 -32 -222 -7 -252 -14
-314 -73 -60 -57 -76 -100 -80 -219 l-4 -108 414 0 414 0 53 51 c57 55 154
106 211 111 l35 3 3 -82 3 -83 115 0 116 0 -6 233 c-4 127 -10 295 -14 372
l-7 140 -88 3 -88 3 -21 46 c-33 75 -49 191 -38 275 13 102 25 140 77 243 55
109 100 172 238 335 124 146 170 230 187 341 l12 76 48 -98 c53 -108 136 -207
221 -264 l49 -33 -59 -16 c-175 -48 -315 -100 -385 -140 -96 -57 -186 -140
-220 -203 -50 -92 -56 -220 -14 -300 65 -125 209 -192 309 -144 48 23 67 53
67 106 0 42 -38 75 -86 75 -52 0 -55 33 -9 114 l37 66 59 0 c252 0 716 161
856 297 48 47 53 55 53 95 0 51 -94 299 -157 412 -43 79 -126 173 -208 236
-59 46 -69 66 -95 205 -19 96 -72 196 -133 250 -106 93 -211 120 -416 109
-117 -6 -130 -5 -178 16 -29 12 -70 41 -91 64 -36 39 -188 284 -180 290 1 2
30 15 63 30 121 54 193 165 155 237 -9 15 -22 19 -69 19 l-59 0 15 43 c49 138
-47 331 -203 410 l-50 25 2 69 2 68 38 20 c28 14 59 19 109 19 163 0 322 -131
341 -280 4 -32 -1 -98 -11 -168 -17 -122 -13 -183 19 -244 27 -52 101 -102
151 -102 29 0 31 10 9 52 -23 44 -14 100 35 230 54 140 64 191 59 301 -4 117
-33 182 -118 271 -65 68 -141 114 -230 140 -66 20 -219 29 -277 16z"/>
<path d="M7682 7775 c12 -15 14 -25 6 -38 -9 -16 -7 -17 9 -9 21 11 42 -5 35
-27 -3 -10 0 -12 11 -8 15 6 45 -22 73 -69 7 -11 15 -15 20 -11 4 4 -32 47
-81 95 -49 48 -82 78 -73 67z"/>
<path d="M2828 7721 c-28 -27 -22 -41 17 -41 32 0 35 2 35 30 0 35 -24 40 -52
11z"/>
<path d="M2651 7666 c-46 -47 -41 -60 17 -44 19 5 36 7 40 4 3 -3 -2 -6 -11
-6 -9 0 -17 -5 -17 -11 0 -6 -9 -9 -19 -6 -12 3 -28 -4 -42 -19 -24 -26 -39
-31 -39 -13 0 5 5 7 12 3 7 -4 8 -3 4 4 -4 6 -13 9 -22 5 -8 -3 -13 -8 -10
-10 2 -3 -11 -18 -30 -35 -19 -17 -37 -41 -40 -54 -3 -13 -10 -22 -14 -19 -4
3 -14 -3 -21 -12 -12 -14 -11 -15 8 -9 18 6 21 4 15 -16 -8 -31 -39 -63 -62
-64 -11 -1 -17 3 -14 7 3 5 3 9 0 9 -13 0 -95 -113 -89 -123 3 -7 3 -9 -2 -5
-4 4 -19 -7 -32 -24 -25 -35 -28 -42 -13 -33 6 3 10 1 10 -4 0 -6 -8 -11 -17
-11 -16 -1 -16 -2 2 -16 17 -13 18 -17 6 -36 -10 -16 -10 -23 -2 -26 6 -2 11
-17 11 -33 0 -22 -5 -29 -20 -29 -17 0 -20 -7 -20 -40 l0 -40 40 0 40 0 0 40
0 40 120 0 120 0 0 40 0 40 40 0 40 0 0 -40 0 -40 48 -1 c141 -4 162 2 157 46
-1 14 1 22 6 20 4 -3 9 -2 12 2 2 5 2 2 0 -6 -3 -11 -1 -11 11 -2 8 7 12 20 9
28 -5 12 -2 15 10 10 9 -3 19 -1 23 5 4 6 3 8 -2 5 -6 -3 -16 -2 -24 4 -12 7
-10 9 8 9 30 0 245 207 237 228 -3 9 0 12 9 9 21 -8 129 82 121 100 -3 8 -5
18 -5 23 0 4 -8 6 -19 3 -20 -5 -18 -43 3 -43 6 0 5 -4 -3 -9 -18 -12 -41 -3
-41 16 0 8 -4 12 -9 9 -17 -11 -5 -41 15 -37 18 3 18 2 -1 -19 -18 -20 -20
-20 -23 -5 -3 13 -11 16 -34 11 -17 -3 -39 -6 -49 -6 -11 0 -19 -4 -19 -10 0
-5 6 -10 14 -10 7 0 16 -12 19 -27 6 -34 -27 -73 -46 -54 -9 9 -8 14 3 22 11
7 6 8 -15 3 -37 -8 -43 -13 -28 -22 18 -11 4 -49 -19 -55 -13 -4 -19 -11 -15
-21 4 -9 0 -19 -7 -23 -7 -5 -16 -15 -19 -23 -3 -8 -6 38 -6 103 l-1 117 40 0
40 0 0 40 0 40 -120 0 c-113 0 -120 1 -120 20 0 13 -7 20 -20 20 -13 0 -20 -7
-20 -20 0 -14 -7 -20 -21 -20 -20 0 -21 4 -18 79 4 81 2 84 -34 53 -14 -13
-20 -13 -30 -2 -7 8 -8 11 -1 7 11 -7 29 7 36 28 1 6 7 9 11 7 5 -1 6 2 2 8
-8 14 -6 15 -54 -34z m-8 -31 c-3 -9 -8 -14 -10 -11 -3 3 -2 9 2 15 9 16 15
13 8 -4z m-3 -79 c0 -3 -4 -8 -10 -11 -5 -3 -10 -1 -10 4 0 6 5 11 10 11 6 0
10 -2 10 -4z m-32 -24 c3 -9 -7 -12 -37 -11 -33 2 -38 5 -29 16 14 17 60 13
66 -5z m647 -32 c3 -5 1 -10 -4 -10 -6 0 -11 5 -11 10 0 6 2 10 4 10 3 0 8 -4
11 -10z m-191 -179 c3 -5 -1 -11 -9 -14 -9 -4 -12 -1 -8 9 6 16 10 17 17 5z
m-665 -43 c3 -62 -8 -118 -25 -118 -8 0 -14 -9 -14 -20 0 -13 -7 -20 -20 -20
-11 0 -20 4 -20 8 0 4 9 14 20 22 15 11 20 26 20 64 0 33 6 56 18 70 14 17 14
18 1 8 -14 -10 -18 -10 -23 3 -3 9 -2 13 3 10 5 -3 12 -1 16 5 13 20 21 9 24
-32z m631 -2 c0 -2 -7 -6 -15 -10 -8 -3 -15 -1 -15 4 0 6 7 10 15 10 8 0 15
-2 15 -4z"/>
<path d="M7764 7662 c3 -5 0 -13 -6 -15 -9 -4 -10 -6 -1 -6 17 -1 25 16 12 25
-7 4 -9 3 -5 -4z"/>
<path d="M7840 7565 c7 -9 15 -13 17 -11 7 7 -7 26 -19 26 -6 0 -6 -6 2 -15z"/>
<path d="M7895 7550 c10 -11 20 -20 23 -20 3 0 -3 9 -13 20 -10 11 -20 20 -23
20 -3 0 3 -9 13 -20z"/>
<path d="M7800 7481 c0 -35 3 -41 21 -41 17 0 20 5 17 37 -2 27 -8 39 -20 41
-15 3 -18 -4 -18 -37z"/>
<path d="M7880 7450 c0 -5 9 -10 20 -10 11 0 20 5 20 10 0 6 -9 10 -20 10 -11
0 -20 -4 -20 -10z"/>
<path d="M2422 7407 c-12 -14 2 -46 15 -34 4 5 1 12 -7 17 -14 9 -7 14 13 11
5 -1 6 3 2 9 -8 13 -10 13 -23 -3z"/>
<path d="M7920 7320 c0 -33 3 -40 20 -40 17 0 20 7 20 40 0 33 -3 40 -20 40
-17 0 -20 -7 -20 -40z"/>
<path d="M8040 7317 c0 -26 4 -37 15 -37 8 0 15 6 15 14 0 10 7 12 23 9 12 -3
19 -3 15 1 -3 4 -9 6 -11 4 -3 -1 -17 8 -31 21 l-26 24 0 -36z"/>
<path d="M8077 7282 c-4 -5 -3 -22 1 -38 4 -16 6 -68 4 -116 -3 -79 -5 -88
-23 -88 -12 0 -19 7 -19 20 0 13 -7 20 -20 20 -18 0 -20 7 -20 60 l0 60 -80 0
-80 0 0 -100 c0 -93 1 -100 20 -100 13 0 20 -7 20 -20 0 -13 7 -20 20 -20 17
0 20 -7 20 -40 l0 -40 40 0 40 0 0 -80 c0 -73 2 -80 20 -80 13 0 20 -7 20 -20
0 -13 7 -20 20 -20 19 0 20 -7 20 -116 0 -107 1 -116 20 -121 16 -4 20 -14 20
-44 0 -39 0 -39 40 -39 33 0 40 -3 40 -20 0 -13 -7 -20 -20 -20 -17 0 -20 -7
-20 -40 l0 -40 60 0 60 0 0 -40 c0 -33 3 -40 20 -40 18 0 20 -7 20 -59 0 -40
-5 -63 -15 -71 -8 -7 -15 -16 -15 -21 0 -5 7 -9 15 -9 12 0 15 -16 15 -80 l0
-80 60 0 60 0 0 -40 c0 -33 3 -40 20 -40 17 0 20 -7 20 -40 l0 -40 -60 0 -60
0 0 -37 c0 -23 -7 -45 -21 -59 -18 -19 -20 -36 -23 -150 -1 -71 -1 -135 2
-141 2 -8 21 -13 43 -13 39 0 39 0 39 40 0 33 3 40 20 40 17 0 20 -7 20 -40
l0 -40 60 0 60 0 0 -80 0 -80 -40 0 -40 0 0 -80 0 -80 -40 0 c-40 0 -40 0 -40
-39 0 -39 -1 -40 -37 -43 -30 -2 -39 -8 -45 -28 -5 -15 -6 -6 -2 25 3 36 2 46
-5 35 -13 -18 -15 -133 -3 -126 5 3 9 -20 10 -49 1 -30 -3 -55 -8 -55 -6 0
-11 21 -11 48 -1 33 -5 16 -15 -58 -7 -58 -12 -109 -10 -115 3 -5 5 4 5 20 1
24 3 27 12 15 9 -13 10 -12 5 2 -3 10 1 32 9 50 13 30 13 25 8 -62 -4 -58 -11
-100 -20 -108 -7 -7 -13 -22 -13 -33 0 -21 20 -25 36 -9 7 7 9 1 6 -21 -4 -29
-7 -31 -41 -27 -36 3 -36 3 -33 -29 2 -18 0 -33 -4 -33 -5 0 -9 -33 -9 -74 0
-41 3 -69 7 -63 5 8 8 6 8 -5 0 -14 8 -18 35 -18 34 0 35 1 35 40 0 33 3 40
20 40 17 0 20 -7 20 -40 0 -33 3 -40 20 -40 17 0 20 -7 20 -40 l0 -40 40 0 40
0 0 -80 0 -80 78 0 c49 0 83 5 91 13 10 10 11 8 5 -8 -4 -11 -10 -24 -13 -30
-8 -14 -9 -45 -1 -45 4 0 12 18 19 41 7 23 15 48 18 57 4 10 2 13 -5 8 -7 -4
-12 -2 -12 4 0 6 -4 9 -8 6 -4 -2 -9 20 -10 50 -2 53 11 84 36 84 13 0 26 -51
15 -59 -5 -3 -10 -22 -10 -41 -2 -34 -2 -34 13 10 20 62 84 324 84 344 0 9 -4
16 -10 16 -5 0 -10 4 -10 10 0 5 6 7 14 4 10 -4 18 27 36 140 12 80 20 157 18
170 -3 14 0 27 6 29 8 3 11 107 11 353 -1 305 -4 369 -23 505 -12 86 -22 160
-22 163 0 3 -4 6 -10 6 -5 0 -7 -8 -4 -17 5 -15 4 -16 -5 -3 -14 19 -14 43 -1
35 6 -3 10 1 10 9 0 32 -50 250 -59 259 -5 5 -7 15 -5 21 5 13 -80 279 -116
361 -20 47 -22 49 -36 31 -13 -18 -14 -17 -14 20 0 29 3 35 10 24 15 -24 11 2
-5 30 -9 15 -15 19 -15 10 -1 -23 -25 21 -25 47 -1 38 -33 63 -82 63 l-43 0 0
55 c0 32 4 55 11 55 5 0 7 5 4 10 -3 6 -1 10 4 10 6 0 11 -7 11 -15 0 -9 7
-18 15 -21 8 -4 12 -10 9 -15 -7 -13 5 -31 17 -23 11 7 -18 62 -46 85 -11 10
-22 13 -26 8 -3 -6 -6 7 -7 28 -1 26 1 34 8 23 5 -8 6 -18 3 -24 -3 -5 -1 -6
6 -2 11 7 -17 66 -53 107 -8 10 -12 20 -9 23 4 3 4 6 1 6 -3 0 -12 -8 -19 -17
-8 -9 -9 -14 -3 -10 14 8 37 -16 26 -28 -4 -5 -1 -4 7 0 11 6 13 4 8 -8 -3 -9
-2 -19 4 -22 11 -8 2 -25 -13 -25 -6 0 -8 3 -5 6 4 4 -1 14 -11 23 -10 9 -21
24 -25 34 -5 13 -18 17 -62 17 l-55 0 0 60 c0 53 -2 60 -20 60 -17 0 -20 7
-20 40 0 22 -5 40 -11 40 -6 0 -8 9 -4 20 5 14 2 20 -9 20 -11 0 -16 9 -16 31
0 16 -4 28 -9 24 -11 -6 -25 30 -17 43 2 4 1 14 -3 21 -5 8 -11 9 -14 3z m323
-662 c0 -13 -7 -20 -20 -20 -13 0 -20 7 -20 20 0 13 7 20 20 20 13 0 20 -7 20
-20z m247 -352 c-3 -8 -6 -5 -6 6 -1 11 2 17 5 13 3 -3 4 -12 1 -19z m40 -110
c-3 -8 -6 -5 -6 6 -1 11 2 17 5 13 3 -3 4 -12 1 -19z m45 -180 c-6 -6 -9 0 -9
18 0 23 1 24 9 10 7 -12 7 -21 0 -28z m88 -1204 c0 -14 -4 -23 -10 -19 -5 3
-10 15 -10 26 0 10 5 19 10 19 6 0 10 -12 10 -26z m0 -110 c0 -19 -4 -33 -8
-30 -8 5 -4 66 4 66 2 0 4 -16 4 -36z m-83 -456 c-3 -8 -6 -5 -6 6 -1 11 2 17
5 13 3 -3 4 -12 1 -19z m-10 -50 c-3 -8 -6 -5 -6 6 -1 11 2 17 5 13 3 -3 4
-12 1 -19z"/>
<path d="M8123 7265 c0 -8 4 -12 9 -9 5 3 6 10 3 15 -9 13 -12 11 -12 -6z"/>
<path d="M8060 7210 c0 -5 5 -10 10 -10 6 0 10 5 10 10 0 6 -4 10 -10 10 -5 0
-10 -4 -10 -10z"/>
<path d="M7539 7133 c35 -40 68 -73 73 -73 5 0 7 -4 3 -9 -3 -5 6 -18 20 -29
13 -11 22 -22 19 -24 -2 -3 2 -11 10 -17 12 -10 13 -8 9 10 -5 17 -3 20 7 14
9 -5 11 -4 6 4 -4 6 -12 9 -17 6 -5 -4 -9 3 -9 14 0 12 -5 21 -11 21 -6 0 -8
-7 -5 -16 6 -15 4 -15 -10 -3 -13 11 -13 15 -2 23 20 17 11 66 -13 66 -12 0
-19 7 -19 20 0 11 -5 20 -11 20 -5 0 -7 5 -3 12 5 8 2 9 -9 5 -11 -4 -17 -1
-17 8 0 17 -36 20 -45 5 -5 -8 -12 -7 -23 2 -9 7 12 -20 47 -59z m52 -30 c13
-15 12 -15 -8 -4 -24 12 -29 21 -14 21 5 0 15 -7 22 -17z m36 -35 c-3 -8 -6
-5 -6 6 -1 11 2 17 5 13 3 -3 4 -12 1 -19z"/>
<path d="M8160 7159 c0 -5 5 -7 10 -4 6 3 10 8 10 11 0 2 -4 4 -10 4 -5 0 -10
-5 -10 -11z"/>
<path d="M8200 7108 c0 -18 5 -28 15 -28 18 0 20 26 3 33 -10 4 -10 6 0 6 17
1 15 18 -3 18 -10 0 -15 -10 -15 -29z"/>
<path d="M2201 7106 c-7 -8 -8 -17 -3 -20 6 -3 15 1 21 8 7 8 8 17 3 20 -6 3
-15 -1 -21 -8z"/>
<path d="M8240 7095 c1 -14 38 -61 43 -55 3 3 -6 19 -19 35 -13 17 -24 26 -24
20z"/>
<path d="M2157 7041 c-9 -16 -17 -37 -17 -48 0 -10 -7 -27 -15 -37 -8 -11 -15
-32 -15 -48 0 -23 -4 -28 -25 -28 -14 0 -29 -8 -35 -20 -13 -25 5 -27 19 -2 7
12 10 -29 11 -140 l0 -158 -81 0 c-68 0 -80 2 -75 15 3 8 1 15 -3 15 -5 0 -12
-7 -15 -16 -8 -22 -8 -26 4 -19 17 11 11 -166 -7 -183 -13 -13 -16 -13 -24 -1
-5 8 -9 19 -9 26 0 6 -8 9 -19 6 -22 -6 -48 -66 -31 -71 17 -6 11 -38 -10 -57
-18 -17 -20 -17 -14 -2 3 9 4 17 1 17 -3 0 -12 -21 -21 -46 -14 -43 -14 -45 1
-33 15 13 15 12 4 -8 -8 -16 -8 -23 -1 -23 6 0 8 -5 5 -11 -4 -6 -14 -8 -22
-5 -12 5 -14 1 -10 -14 3 -12 1 -18 -5 -14 -7 5 -9 -2 -6 -19 3 -15 2 -24 -3
-22 -7 5 -17 -29 -25 -80 -2 -11 -6 -31 -9 -45 -4 -21 -4 -22 3 -5 8 17 11 14
22 -22 7 -24 16 -43 20 -43 5 0 8 -40 8 -90 l0 -90 -37 0 c-37 0 -39 2 -49 43
l-10 42 -1 -35 c-1 -19 -1 -50 -1 -68 0 -18 -7 -49 -15 -69 -10 -23 -17 -79
-20 -143 -2 -58 -7 -116 -10 -130 -12 -45 -18 -440 -8 -440 6 0 16 -20 23 -45
12 -42 11 -60 -6 -128 -6 -25 -4 -28 12 -25 19 3 20 8 23 96 1 12 6 22 12 22
7 0 8 -14 4 -40 l-7 -40 46 0 46 0 0 -179 c0 -210 -8 -301 -25 -301 -17 0 -26
-39 -15 -60 5 -9 5 -22 -1 -31 -5 -7 -9 -21 -9 -29 0 -12 2 -13 9 -1 5 7 13
11 19 7 6 -3 13 4 15 16 l4 23 2 -22 c1 -16 7 -23 21 -23 18 0 20 -7 20 -80 0
-47 4 -80 10 -80 6 0 10 9 10 20 0 11 5 20 10 20 6 0 10 9 10 20 0 13 7 20 20
20 17 0 20 -7 20 -40 0 -33 3 -40 20 -40 18 0 20 -7 20 -80 l0 -80 -38 0 c-21
0 -43 -5 -48 -10 -10 -10 -48 92 -70 185 -5 20 -9 24 -11 13 -7 -27 68 -242
79 -226 6 9 7 5 3 -11 -8 -27 12 -46 32 -29 9 7 13 7 13 -1 0 -10 -13 -15 -32
-12 -4 0 -5 -6 -2 -14 4 -8 11 -12 16 -9 6 4 7 -2 3 -16 -4 -12 -3 -20 1 -17
5 3 10 -5 11 -16 0 -12 13 -48 28 -80 23 -51 29 -56 43 -45 12 10 14 10 8 1
-4 -7 -3 -13 3 -13 20 0 20 18 -1 45 -15 19 -23 23 -28 14 -6 -8 -11 -5 -20
10 -9 17 -9 26 1 37 13 16 49 19 49 4 0 -6 27 -10 60 -10 l60 0 0 -140 0 -140
80 0 80 0 0 -80 0 -80 -34 0 c-30 0 -35 4 -41 30 -9 41 -25 38 -25 -6 0 -20 4
-33 10 -29 6 4 7 -1 3 -11 -6 -17 -7 -17 -17 0 -26 42 -36 47 -12 6 14 -25 30
-44 36 -42 6 1 9 -2 5 -8 -3 -5 1 -13 9 -16 24 -9 66 4 66 21 0 8 9 15 20 15
13 0 20 -7 20 -20 0 -17 7 -20 40 -20 33 0 40 -3 40 -20 0 -13 7 -20 20 -20
13 0 20 -7 20 -20 0 -17 7 -20 40 -20 l40 0 0 -40 0 -40 -41 0 -41 0 4 -60 c4
-60 0 -67 -36 -61 -5 1 11 -21 34 -49 30 -36 46 -48 53 -41 6 6 33 11 59 11
45 0 48 -2 48 -25 0 -24 -16 -32 -45 -25 -5 2 -18 2 -29 2 -13 -1 -17 4 -13
19 5 17 3 18 -9 8 -13 -10 -11 -16 12 -40 15 -16 32 -25 37 -22 6 4 8 0 4 -10
-5 -13 -2 -15 18 -7 19 7 27 6 34 -7 8 -14 12 -15 25 -4 13 11 18 10 31 -3 14
-14 12 -16 -19 -21 l-34 -7 22 -22 21 -21 11 22 c10 23 10 23 27 -11 12 -26
13 -36 4 -39 -9 -3 -8 -8 2 -18 9 -9 11 -9 7 -1 -4 6 -2 12 4 12 7 0 10 -6 7
-12 -2 -7 -12 -12 -21 -12 -22 2 -20 -3 5 -17 15 -8 19 -8 15 0 -4 6 -2 11 3
11 6 0 11 -4 11 -9 0 -16 51 -23 68 -9 12 10 16 10 19 1 8 -22 32 -15 26 7 -5
18 0 20 36 20 34 0 41 -3 41 -20 0 -18 7 -20 80 -20 l80 0 0 -40 c0 -33 3 -40
20 -40 13 0 20 -7 20 -20 0 -13 7 -20 20 -20 13 0 20 -7 20 -20 0 -17 7 -20
40 -20 l40 0 0 -126 c0 -81 -4 -123 -10 -119 -5 3 -10 24 -10 45 0 35 -3 39
-30 45 -35 8 -51 0 -44 -20 4 -10 14 -13 30 -9 15 4 24 2 24 -6 0 -6 -4 -8
-10 -5 -5 3 -10 1 -10 -5 0 -6 -4 -8 -10 -5 -5 3 -10 4 -10 2 0 -2 19 -17 41
-32 31 -20 44 -24 49 -15 4 7 13 9 19 5 9 -5 9 -10 1 -20 -8 -10 -7 -14 2 -17
18 -6 48 2 48 13 0 5 9 9 20 9 11 0 20 -4 20 -10 0 -6 40 -10 100 -10 l100 0
0 -69 c0 -61 2 -69 21 -74 16 -4 18 -3 8 9 -9 11 -8 14 5 14 9 0 16 -4 16 -10
0 -5 7 -10 15 -10 8 0 15 5 15 10 0 6 47 10 120 10 l120 0 1 -82 c1 -46 1 -86
1 -89 -1 -4 14 -2 33 3 27 9 37 8 49 -4 13 -14 13 -18 0 -37 -8 -11 -11 -21
-7 -21 5 0 15 8 22 18 9 12 21 17 37 14 19 -3 24 0 24 17 0 20 5 21 80 21 l80
0 0 -39 c0 -25 -5 -39 -12 -38 -73 2 -93 -19 -28 -29 22 -4 43 -11 46 -15 10
-17 34 -9 34 12 0 18 3 19 15 9 12 -10 16 -9 21 4 4 11 18 16 45 16 l39 0 0
-45 c0 -44 -1 -45 -32 -46 l-33 -1 34 -10 c23 -6 37 -6 44 1 17 17 31 13 17
-4 -11 -13 -8 -15 16 -17 16 -1 37 -2 46 -3 9 0 20 -4 24 -8 4 -4 14 -7 23 -6
12 0 11 3 -4 9 -14 7 -8 8 24 5 51 -5 67 -15 25 -16 -28 -1 -28 -1 6 -9 73
-16 120 -20 120 -10 0 5 -7 10 -15 10 -12 0 -15 15 -15 75 0 68 -2 75 -20 75
-13 0 -20 7 -20 20 0 17 7 20 40 20 l40 0 0 -60 0 -60 40 0 40 0 0 80 0 80 60
0 c53 0 60 -2 60 -20 0 -13 7 -20 20 -20 13 0 20 7 20 20 0 13 -7 20 -20 20
-17 0 -20 7 -20 40 0 33 -3 40 -20 40 -17 0 -20 7 -20 40 l0 40 -140 0 -140 0
0 81 c0 69 2 80 16 75 9 -4 12 -2 8 5 -4 7 -21 8 -43 5 -23 -4 -31 -3 -23 2
10 7 -8 14 -57 25 -39 9 -77 15 -83 13 -7 -1 -9 -1 -4 2 6 3 -23 15 -64 28
-41 13 -76 21 -79 19 -2 -3 1 -5 8 -5 7 0 9 -5 6 -10 -3 -5 0 -11 7 -12 7 0
18 -2 23 -3 6 -2 24 -4 40 -5 l30 -2 -35 -10 c-48 -13 -65 -32 -24 -26 21 3
31 0 31 -9 0 -8 -14 -13 -39 -13 -26 0 -38 4 -38 14 0 9 -15 17 -40 21 -30 5
-40 12 -40 25 0 10 6 21 13 23 7 3 4 6 -6 6 -11 1 -15 6 -11 13 4 6 3 8 -2 5
-6 -3 -36 7 -67 22 -32 15 -60 24 -63 19 -3 -4 2 -10 10 -13 9 -3 22 -7 30 -9
7 -2 16 -14 19 -25 5 -20 2 -21 -99 -21 l-104 0 0 68 0 67 -24 -27 c-32 -38
-39 -35 -34 12 3 31 0 39 -10 35 -8 -3 -18 -5 -23 -5 -5 0 -9 -16 -9 -35 0
-19 -4 -35 -10 -35 -5 0 -10 18 -10 39 0 35 3 40 27 43 37 4 39 35 2 53 -25
14 -28 14 -23 0 3 -8 9 -13 13 -11 4 3 13 1 20 -3 10 -7 10 -9 -1 -13 -7 -3
-31 10 -53 29 -22 19 -34 32 -27 28 6 -3 12 -4 12 -1 0 3 -15 13 -32 21 -27
13 -30 13 -14 1 18 -14 17 -15 -8 -22 -31 -7 -31 -7 -41 25 -6 21 -5 23 11 17
13 -4 11 0 -6 14 -29 23 -74 21 -78 -3 -4 -21 26 -23 34 -3 3 8 12 12 21 9 13
-5 13 -7 -1 -15 -9 -5 -16 -18 -16 -28 0 -19 -8 -20 -100 -20 l-100 0 0 80 0
80 -40 0 c-29 0 -40 4 -40 15 0 8 -9 15 -20 15 -11 0 -20 -7 -20 -15 0 -8 -9
-15 -20 -15 -17 0 -20 7 -20 40 0 33 -3 40 -20 40 -13 0 -20 7 -20 20 0 13 -7
20 -20 20 -13 0 -20 7 -20 20 0 17 -7 20 -40 20 l-40 0 0 40 0 40 -80 0 -80 0
0 40 0 40 -60 0 -60 0 0 80 0 80 -40 0 c-33 0 -40 3 -40 20 0 13 -7 20 -20 20
-19 0 -20 7 -20 94 0 66 4 96 13 99 10 4 10 6 0 6 -7 1 -13 6 -13 11 0 14 27
12 33 -2 4 -10 6 -10 6 0 1 8 7 6 19 -5 11 -10 17 -22 14 -27 -3 -5 1 -6 8 -1
9 5 10 2 6 -13 -5 -16 -1 -24 21 -36 22 -12 24 -15 9 -16 -15 0 -16 -3 -6 -15
9 -11 16 -12 25 -5 9 8 15 6 20 -7 5 -10 7 -22 6 -28 -2 -5 1 -7 5 -2 4 4 17
-1 28 -10 11 -10 0 6 -24 35 -24 28 -48 52 -53 52 -6 0 -7 3 -4 6 10 10 -55
95 -69 90 -7 -3 -15 2 -18 10 -3 8 0 14 6 14 7 0 6 5 -2 15 -7 8 -17 12 -22 8
-6 -3 -8 0 -6 8 7 20 -11 51 -24 43 -6 -4 -8 -3 -4 4 3 6 -12 39 -34 73 -22
34 -40 66 -40 71 0 5 -5 6 -10 3 -6 -4 -9 -3 -8 2 4 17 -14 53 -24 47 -6 -4
-8 -2 -4 4 8 13 -14 63 -25 56 -5 -3 -6 3 -2 12 4 12 3 15 -5 10 -8 -4 -10 -2
-6 8 3 8 -3 19 -14 25 -15 8 -22 8 -25 -2 -2 -6 -8 -9 -12 -5 -4 4 0 14 9 23
11 11 16 12 16 4 0 -7 2 -10 5 -7 3 3 -13 44 -35 91 -22 48 -56 128 -74 178
-18 51 -35 88 -38 83 -3 -5 -4 -4 -2 2 4 18 -18 94 -27 94 -5 0 -5 7 -2 17 4
11 3 14 -6 9 -8 -6 -11 -1 -9 16 4 33 -12 119 -21 113 -5 -2 -6 8 -4 23 4 22
2 24 -7 12 -10 -13 -11 -12 -6 4 8 23 -13 146 -25 146 -4 0 -6 7 -3 15 7 18
-16 185 -26 185 -12 0 -12 603 1 715 8 61 13 126 14 147 0 20 4 34 9 30 5 -3
6 9 2 28 -3 19 -3 30 1 26 8 -7 42 132 42 169 l0 20 -8 -20 c-6 -14 -8 -7 -8
25 0 35 2 40 8 22 12 -31 17 -28 29 21 6 23 14 50 17 61 3 12 1 16 -6 12 -14
-9 -14 4 -1 24 9 13 10 13 11 0 1 -8 7 3 14 25 7 22 11 51 8 65 -3 17 -2 21 5
12 6 -9 16 5 32 50 13 35 23 69 23 76 0 6 5 12 11 13 6 0 2 4 -9 8 -12 5 -23
4 -27 -3 -10 -15 -10 -28 0 -22 5 3 9 -1 9 -9 0 -8 -5 -11 -10 -8 -5 3 -7 0
-5 -8 3 -8 1 -22 -4 -31 -22 -43 -28 -11 -28 147 l0 165 40 0 40 0 0 200 0
200 -60 0 -60 0 -2 38 c-1 35 -1 35 -5 6 -4 -28 -9 -32 -39 -36 -28 -3 -34 -1
-34 14 0 10 -5 18 -11 18 -15 0 -7 35 9 36 6 1 19 2 27 3 11 1 15 13 15 47 0
36 -3 45 -14 41 -10 -4 -13 -1 -9 9 9 24 -2 16 -20 -15z m-307 -659 c0 -5 -7
-17 -16 -28 -8 -10 -14 -14 -11 -9 2 6 7 18 10 28 7 17 17 23 17 9z m5 -52 c3
-5 1 -10 -4 -10 -6 0 -11 5 -11 10 0 6 2 10 4 10 3 0 8 -4 11 -10z m65 -10 c0
-13 -7 -20 -20 -20 -11 0 -20 2 -20 4 0 2 -3 11 -6 20 -5 12 0 16 20 16 19 0
26 -5 26 -20z m0 -164 c0 -39 -2 -44 -20 -39 -16 4 -20 14 -20 44 0 32 3 39
20 39 17 0 20 -7 20 -44z m-40 -56 c0 -17 -7 -20 -40 -20 -33 0 -40 3 -40 20
0 17 7 20 40 20 33 0 40 -3 40 -20z m-120 -45 c0 -8 -7 -15 -16 -15 -14 0 -14
3 -4 15 7 8 14 15 16 15 2 0 4 -7 4 -15z m0 -130 c0 -5 -5 -3 -10 5 -5 8 -10
20 -10 25 0 6 5 3 10 -5 5 -8 10 -19 10 -25z m420 -236 c0 -6 -4 -7 -10 -4 -5
3 -10 11 -10 16 0 6 5 7 10 4 6 -3 10 -11 10 -16z m-529 -186 c1 -17 2 -17 6
0 3 13 15 17 54 17 l49 0 0 -55 c0 -48 -2 -55 -20 -55 -11 0 -20 7 -20 15 0 8
-9 15 -20 15 -13 0 -20 7 -20 20 0 15 -7 20 -25 20 -18 0 -25 5 -25 20 0 25
20 27 21 3z m486 -105 c-3 -8 -6 -5 -6 6 -1 11 2 17 5 13 3 -3 4 -12 1 -19z
m-505 -90 c-9 -9 -12 -7 -12 12 0 19 3 21 12 12 9 -9 9 -15 0 -24z m-2 -88
c-16 -31 -23 -18 -8 15 7 15 14 23 16 17 2 -6 -2 -21 -8 -32z m497 -12 c-2
-13 -4 -5 -4 17 -1 22 1 32 4 23 2 -10 2 -28 0 -40z m-505 -122 c-9 -18 -11
-16 -11 19 0 33 1 37 10 21 8 -12 8 -25 1 -40z m553 -586 c3 -5 1 -10 -4 -10
-6 0 -11 5 -11 10 0 6 2 10 4 10 3 0 8 -4 11 -10z m-255 -730 c0 -5 -4 -10
-10 -10 -5 0 -10 5 -10 10 0 6 5 10 10 10 6 0 10 -4 10 -10z m660 -311 c0 -6
-4 -7 -10 -4 -5 3 -10 11 -10 16 0 6 5 7 10 4 6 -3 10 -11 10 -16z m-180 -639
c0 -5 -2 -10 -4 -10 -3 0 -8 5 -11 10 -3 6 -1 10 4 10 6 0 11 -4 11 -10z m86
-14 c20 -21 17 -28 -6 -14 -11 7 -20 16 -20 20 0 12 10 9 26 -6z m-56 -6 c0
-5 5 -9 12 -7 6 1 14 -6 16 -15 4 -21 -14 -24 -31 -5 -16 17 -20 37 -7 37 6 0
10 -4 10 -10z m1670 -630 c0 -5 -10 -10 -22 -9 -22 0 -22 1 -3 9 11 5 21 9 23
9 1 1 2 -3 2 -9z m330 -81 c0 -14 -17 -10 -23 5 -4 10 -1 13 9 9 7 -3 14 -9
14 -14z"/>
<path d="M2792 7023 c-14 -3 -22 -10 -19 -18 3 -7 0 -19 -6 -26 -7 -8 3 -1 21
15 27 25 40 41 30 35 -2 -1 -13 -4 -26 -6z"/>
<path d="M2106 6958 l-18 -33 21 25 c18 22 26 40 18 40 -1 0 -11 -15 -21 -32z"/>
<path d="M2715 6960 c-3 -5 -1 -10 4 -10 6 0 11 5 11 10 0 6 -2 10 -4 10 -3 0
-8 -4 -11 -10z"/>
<path d="M7700 6935 c40 -48 43 -51 32 -30 -6 11 -21 29 -34 40 -22 19 -22 19
2 -10z"/>
<path d="M2703 6917 c-23 -23 -30 -47 -14 -47 5 0 14 7 21 15 10 12 10 15 -1
16 -8 0 -4 4 9 9 12 5 22 14 22 20 0 15 -13 11 -37 -13z"/>
<path d="M2639 6888 c0 -2 -1 -24 -2 -50 -1 -25 -5 -50 -9 -54 -5 -4 -8 -12
-8 -17 0 -6 13 9 30 31 25 34 28 46 20 67 -8 20 -27 35 -31 23z"/>
<path d="M7740 6876 c0 -2 8 -10 18 -17 15 -13 16 -12 3 4 -13 16 -21 21 -21
13z"/>
<path d="M7800 6867 c0 -22 11 -27 26 -12 19 19 18 25 -6 25 -11 0 -20 -6 -20
-13z"/>
<path d="M7777 6827 c35 -55 59 -87 67 -87 5 0 3 7 -4 15 -7 8 -9 15 -5 15 4
0 -4 9 -19 21 -14 11 -26 27 -26 35 0 8 -5 14 -10 14 -7 0 -8 -5 -3 -13z"/>
<path d="M7838 6817 c-3 -19 -2 -25 4 -19 6 6 8 18 6 28 -3 14 -5 12 -10 -9z"/>
<path d="M2026 6813 c-6 -14 -5 -15 5 -6 7 7 10 15 7 18 -3 3 -9 -2 -12 -12z"/>
<path d="M2562 6788 c2 -18 6 -24 12 -18 17 17 23 11 18 -17 -3 -16 -11 -32
-18 -36 -8 -4 -14 -17 -14 -27 0 -11 -4 -20 -10 -20 -5 0 -10 4 -10 8 0 5 -7
9 -15 9 -8 0 -15 -4 -15 -9 0 -4 7 -8 15 -8 8 0 15 -4 15 -10 0 -5 -6 -10 -13
-10 -12 0 -22 -14 -45 -62 -2 -5 5 -8 15 -8 18 0 63 60 46 60 -4 0 -3 4 3 8
13 9 68 102 60 102 -3 0 -1 11 4 25 10 26 1 38 -32 40 -14 1 -18 -5 -16 -27z"/>
<path d="M2030 6780 c0 -5 5 -10 11 -10 5 0 7 5 4 10 -3 6 -8 10 -11 10 -2 0
-4 -4 -4 -10z"/>
<path d="M1986 6743 c-6 -14 -5 -15 5 -6 7 7 10 15 7 18 -3 3 -9 -2 -12 -12z"/>
<path d="M2551 6734 c0 -11 3 -14 6 -6 3 7 2 16 -1 19 -3 4 -6 -2 -5 -13z"/>
<path d="M7867 6710 c-3 -11 0 -23 5 -27 7 -3 8 -1 4 5 -4 7 -3 12 2 12 6 0
12 7 16 15 3 9 0 15 -8 15 -8 0 -16 -9 -19 -20z"/>
<path d="M1995 6697 c-5 -7 -10 -24 -9 -39 1 -29 -18 -38 -32 -16 -5 7 -11 5
-21 -7 -17 -24 -17 -32 1 -32 8 0 11 8 8 20 -3 14 -1 18 6 13 7 -4 12 -14 12
-22 0 -10 12 -14 40 -14 l40 0 0 40 c0 42 -24 58 -33 23 -2 -10 -3 -3 -1 15 3
36 3 36 -11 19z"/>
<path d="M7910 6680 c0 -5 5 -10 10 -10 6 0 10 5 10 10 0 6 -4 10 -10 10 -5 0
-10 -4 -10 -10z"/>
<path d="M8477 6683 c-12 -11 -8 -22 14 -33 19 -11 20 -10 8 12 -15 30 -15 29
-22 21z"/>
<path d="M7898 6643 c7 -3 16 -2 19 1 4 3 -2 6 -13 5 -11 0 -14 -3 -6 -6z"/>
<path d="M7949 6593 c0 -5 -2 -16 -4 -26 -2 -11 0 -16 3 -12 4 4 7 10 7 13 0
4 4 13 8 20 5 7 4 12 -2 12 -6 0 -11 -3 -12 -7z"/>
<path d="M2478 6561 c12 -7 11 -14 -2 -40 -9 -17 -21 -31 -26 -31 -6 0 -10
-11 -10 -25 0 -20 -5 -25 -27 -25 -29 0 -27 -8 4 -14 16 -3 27 10 56 70 36 72
36 74 14 74 -16 0 -18 -3 -9 -9z"/>
<path d="M1881 6513 c-10 -26 -10 -27 4 -9 8 11 15 23 15 28 0 15 -7 8 -19
-19z"/>
<path d="M7985 6480 c9 -16 18 -30 21 -30 2 0 -2 14 -11 30 -9 17 -18 30 -21
30 -2 0 2 -13 11 -30z"/>
<path d="M1857 6463 c-2 -10 -8 -26 -12 -36 -5 -13 -3 -16 8 -11 8 3 17 19 19
35 5 31 -6 40 -15 12z"/>
<path d="M2399 6415 c-1 -3 -2 -15 -3 -27 -1 -16 -8 -23 -21 -23 -11 -1 -19
-6 -17 -13 1 -7 -2 -12 -8 -12 -5 0 -10 -4 -10 -10 0 -5 7 -10 15 -10 8 0 15
-4 15 -10 0 -5 -7 -10 -15 -10 -8 0 -15 -9 -15 -20 0 -11 4 -20 10 -20 9 0 36
51 42 80 2 8 9 21 16 28 7 8 10 17 7 22 -3 5 0 10 7 12 8 3 6 7 -5 11 -9 3
-18 4 -18 2z"/>
<path d="M8110 6231 c0 -10 30 -24 37 -17 3 3 2 9 -2 15 -8 13 -35 15 -35 2z"/>
<path d="M8136 6130 c3 -14 10 -32 15 -40 7 -12 8 -11 6 5 -2 11 -8 29 -15 40
-12 19 -12 18 -6 -5z"/>
<path d="M8165 6070 c-3 -5 -1 -10 4 -10 6 0 11 5 11 10 0 6 -2 10 -4 10 -3 0
-8 -4 -11 -10z"/>
<path d="M8220 6060 c0 -11 5 -20 10 -20 6 0 10 9 10 20 0 11 -4 20 -10 20 -5
0 -10 -9 -10 -20z"/>
<path d="M1691 5924 c0 -11 3 -14 6 -6 3 7 2 16 -1 19 -3 4 -6 -2 -5 -13z"/>
<path d="M8213 5886 c4 -10 7 -24 7 -32 0 -8 4 -14 9 -14 11 0 1 49 -12 57 -7
4 -8 0 -4 -11z"/>
<path d="M8230 5810 c0 -11 4 -20 9 -20 5 0 7 9 4 20 -3 11 -7 20 -9 20 -2 0
-4 -9 -4 -20z"/>
<path d="M8265 5722 c-6 -4 -8 -20 -5 -37 l6 -30 5 38 c3 20 5 37 4 37 0 0 -5
-4 -10 -8z"/>
<path d="M8270 5617 c0 -14 5 -29 10 -32 7 -4 8 3 4 22 -9 38 -14 42 -14 10z"/>
<path d="M8292 5470 c0 -19 2 -27 5 -17 2 9 2 25 0 35 -3 9 -5 1 -5 -18z"/>
<path d="M8312 5080 l1 -145 8 129 c5 78 5 135 -1 145 -6 10 -9 -35 -8 -129z"/>
<path d="M8330 5080 c0 -39 1 -40 35 -40 34 0 35 1 35 40 0 39 -1 40 -35 40
-34 0 -35 -1 -35 -40z"/>
<path d="M1610 4837 c0 -26 5 -47 10 -47 6 0 8 16 4 43 -9 58 -14 59 -14 4z"/>
<path d="M1625 4681 c3 -18 5 -50 5 -70 l1 -36 14 30 c7 17 14 23 14 15 1 -13
2 -13 11 0 13 20 13 60 0 60 -5 0 -10 7 -10 16 0 13 -3 14 -14 5 -11 -9 -15
-9 -20 1 -3 7 -4 -2 -1 -21z"/>
<path d="M1640 4540 c0 -22 4 -28 15 -24 8 4 15 1 15 -5 0 -6 -4 -11 -10 -11
-5 0 -10 -13 -10 -30 0 -16 4 -30 10 -30 5 0 7 -7 4 -15 -3 -8 -1 -36 4 -62 6
-27 14 -66 17 -87 9 -53 24 -28 18 28 -3 31 -2 37 6 26 8 -12 11 -5 11 28 0
39 -2 42 -26 42 -33 0 -30 33 4 38 20 3 22 9 22 61 0 57 -1 59 -31 65 -47 9
-49 8 -49 -24z"/>
<path d="M8255 4484 c-4 -32 -9 -64 -12 -73 -3 -11 0 -10 12 4 9 11 14 28 11
38 -2 10 0 14 6 11 7 -4 8 5 3 25 -5 22 -3 31 5 29 7 -2 14 3 16 10 1 7 0 8
-3 2 -3 -8 -9 -8 -18 0 -10 8 -14 -2 -20 -46z"/>
<path d="M8206 4264 c-4 -19 -10 -43 -13 -52 -4 -12 -1 -11 10 4 21 27 31 70
19 78 -5 3 -13 -10 -16 -30z"/>
<path d="M1701 4204 c0 -11 3 -14 6 -6 3 7 2 16 -1 19 -3 4 -6 -2 -5 -13z"/>
<path d="M8166 4134 c-10 -31 -15 -58 -13 -61 3 -2 8 9 12 26 7 33 25 52 25
27 0 -8 -4 -18 -10 -21 -16 -10 -12 -45 5 -45 8 0 15 -4 15 -10 0 -5 18 -10
40 -10 33 0 40 3 40 20 0 17 -7 20 -40 20 -37 0 -40 2 -41 28 -5 92 -11 97
-33 26z"/>
<path d="M1731 4095 c0 -11 3 -26 8 -33 6 -10 10 -8 14 9 4 13 4 25 2 28 -3 2
-5 -2 -6 -10 0 -8 -4 -6 -9 6 l-9 20 0 -20z"/>
<path d="M8144 3989 c-3 -6 -1 -16 5 -22 8 -8 11 -5 11 11 0 24 -5 28 -16 11z"/>
<path d="M1790 3956 c0 -8 5 -18 10 -21 6 -3 10 1 10 9 0 8 -4 18 -10 21 -5 3
-10 -1 -10 -9z"/>
<path d="M3182 3729 l-233 -231 27 -42 c41 -61 183 -200 231 -225 58 -29 129
-28 174 2 52 35 92 102 97 163 l4 52 51 6 c42 6 58 15 93 49 53 54 70 109 52
170 -9 32 -39 69 -132 165 -66 67 -122 122 -125 122 -3 0 -111 -104 -239 -231z
m295 -31 c13 -12 23 -33 23 -49 0 -55 -57 -65 -93 -17 l-21 28 29 30 c16 16
31 30 34 30 2 0 15 -10 28 -22z m-166 -184 c25 -41 19 -81 -14 -93 -32 -12
-69 5 -89 39 -17 31 -17 31 19 70 40 45 47 43 84 -16z"/>
<path d="M8061 3853 c-10 -26 -10 -27 4 -9 8 11 15 23 15 28 0 15 -7 8 -19
-19z"/>
<path d="M8605 3850 c-3 -5 -1 -10 4 -10 6 0 11 5 11 10 0 6 -2 10 -4 10 -3 0
-8 -4 -11 -10z"/>
<path d="M8625 3830 c-4 -6 -11 -8 -16 -5 -5 4 -9 -1 -9 -9 0 -23 27 -20 33 4
6 22 2 26 -8 10z"/>
<path d="M8555 3791 c-8 -14 3 -31 20 -31 15 0 14 32 -2 37 -6 2 -14 -1 -18
-6z"/>
<path d="M8029 3783 c-5 -31 -5 -54 0 -57 3 -2 6 11 7 30 1 30 -4 47 -7 27z"/>
<path d="M8600 3770 c0 -11 2 -20 4 -20 2 0 6 9 9 20 3 11 1 20 -4 20 -5 0 -9
-9 -9 -20z"/>
<path d="M7227 3726 c-134 -48 -204 -194 -148 -310 28 -57 85 -116 136 -141
51 -24 143 -31 201 -15 54 15 136 86 165 142 l20 39 -43 50 c-37 44 -44 49
-53 34 -25 -42 -50 -67 -86 -85 -81 -42 -110 -17 -52 43 58 61 93 111 93 133
0 28 -79 102 -120 114 -45 13 -67 12 -113 -4z m81 -141 c4 -29 -56 -89 -74
-74 -18 15 -18 33 2 70 12 24 21 30 42 27 18 -2 28 -10 30 -23z"/>
<path d="M7987 3695 c-4 -8 -2 -17 3 -20 6 -4 10 3 10 14 0 25 -6 27 -13 6z"/>
<path d="M8565 3680 c-3 -5 -1 -10 4 -10 6 0 11 5 11 10 0 6 -2 10 -4 10 -3 0
-8 -4 -11 -10z"/>
<path d="M7966 3653 c-6 -14 -5 -15 5 -6 7 7 10 15 7 18 -3 3 -9 -2 -12 -12z"/>
<path d="M1920 3630 c0 -5 5 -10 10 -10 6 0 10 5 10 10 0 6 -4 10 -10 10 -5 0
-10 -4 -10 -10z"/>
<path d="M6704 3586 c-43 -43 -46 -90 -9 -134 32 -39 67 -47 110 -26 68 32 92
119 46 168 -19 20 -34 26 -69 26 -37 0 -50 -6 -78 -34z"/>
<path d="M1974 3584 c3 -9 6 -18 6 -20 0 -2 9 -4 20 -4 13 0 20 7 20 20 0 15
-7 20 -26 20 -20 0 -25 -4 -20 -16z"/>
<path d="M7916 3563 c-6 -14 -5 -15 5 -6 7 7 10 15 7 18 -3 3 -9 -2 -12 -12z"/>
<path d="M7890 3520 c-6 -11 -8 -20 -6 -20 3 0 10 9 16 20 6 11 8 20 6 20 -3
0 -10 -9 -16 -20z"/>
<path d="M1949 3510 c16 -46 75 -150 84 -150 5 0 7 7 4 14 -4 10 -1 13 9 9 8
-3 14 -2 13 3 -1 5 2 18 6 28 6 13 3 23 -8 31 -10 7 -17 17 -17 24 0 14 -37
15 -45 1 -4 -6 -11 -8 -16 -4 -5 3 -7 9 -5 12 2 4 -4 19 -15 32 l-19 25 9 -25z"/>
<path d="M8483 3499 c-2 -23 3 -25 10 -4 4 8 3 16 -1 19 -4 3 -9 -4 -9 -15z"/>
<path d="M6900 3444 c-25 -25 -60 -54 -77 -65 -18 -12 -33 -25 -33 -30 0 -14
195 -266 281 -363 7 -8 111 65 136 96 10 11 -14 52 -113 198 -69 102 -130 191
-137 198 -10 10 -22 3 -57 -34z"/>
<path d="M8456 3444 c-10 -14 -16 -30 -14 -35 2 -6 11 6 21 25 20 42 16 47 -7
10z"/>
<path d="M3594 3386 c-120 -53 -192 -209 -149 -323 22 -56 85 -127 137 -154
82 -42 203 -16 267 57 123 139 98 307 -59 402 -44 26 -64 32 -110 32 -30 -1
-69 -7 -86 -14z m136 -156 c11 -6 24 -28 31 -49 29 -97 -92 -177 -137 -90 -20
39 -13 68 27 114 33 37 48 42 79 25z"/>
<path d="M7806 3392 c-2 -4 -1 -14 4 -22 7 -11 9 -9 7 8 -1 24 -3 26 -11 14z"/>
<path d="M8404 3363 c1 -18 2 -33 3 -33 1 0 10 15 19 33 15 27 15 30 2 19 -13
-10 -17 -10 -21 0 -2 7 -4 -2 -3 -19z"/>
<path d="M7769 3334 c-7 -10 -9 -15 -3 -11 6 3 16 -4 22 -17 14 -31 52 -42 52
-15 0 10 -5 19 -11 19 -5 0 -7 5 -3 11 4 7 1 10 -7 7 -8 -3 -19 2 -25 10 -8
12 -12 11 -25 -4z"/>
<path d="M2050 3321 c0 -7 9 -29 21 -47 22 -36 32 -44 23 -19 -5 11 -2 13 12
8 12 -4 15 -3 10 6 -5 7 -15 10 -23 7 -9 -4 -19 5 -28 27 -8 17 -14 26 -15 18z"/>
<path d="M2077 3309 c4 -13 8 -18 11 -10 2 7 -1 18 -6 23 -8 8 -9 4 -5 -13z"/>
<path d="M7740 3295 c-7 -9 -8 -15 -2 -15 5 0 12 7 16 15 3 8 4 15 2 15 -2 0
-9 -7 -16 -15z"/>
<path d="M6592 3249 c-24 -12 -55 -37 -69 -55 -19 -26 -33 -34 -57 -34 -17 0
-50 -9 -74 -20 l-42 -19 48 -78 c27 -43 84 -135 127 -205 42 -71 81 -128 87
-128 15 0 148 71 148 80 0 4 -34 68 -75 142 -76 135 -84 168 -44 168 14 0 46
-40 110 -140 l91 -139 61 40 c34 21 69 44 77 49 13 8 13 12 0 32 -8 13 -35 59
-61 103 -67 113 -104 161 -151 195 -51 37 -113 40 -176 9z"/>
<path d="M7694 3233 c-11 -16 -19 -35 -19 -43 0 -8 -5 -15 -11 -15 -5 0 -25
-18 -44 -40 -19 -22 -56 -63 -83 -91 -31 -33 -45 -54 -38 -58 6 -4 9 -11 7
-15 -3 -4 8 -8 24 -9 24 -2 28 2 32 28 5 30 -15 44 -25 18 -3 -8 -6 -6 -6 5
-1 9 6 17 15 17 8 0 13 4 9 9 -9 16 15 23 32 9 9 -7 18 -12 20 -10 1 1 28 2
58 2 48 0 55 -2 55 -20 0 -18 7 -20 60 -20 53 0 60 2 60 20 0 13 7 20 20 20
17 0 20 7 20 40 0 33 -3 40 -20 40 -17 0 -20 7 -20 40 l0 40 -62 1 c-35 1 -69
1 -75 0 -8 -1 -10 5 -7 14 3 8 9 15 13 15 4 0 8 7 8 15 0 20 -2 19 -23 -12z
m-28 -113 c8 0 14 -4 14 -9 0 -6 -15 -7 -34 -4 -32 5 -34 3 -41 -27 -5 -22
-10 -29 -17 -22 -15 15 29 75 49 68 8 -3 21 -6 29 -6z"/>
<path d="M8320 3225 c0 -8 4 -15 8 -15 5 0 9 7 9 15 0 8 -4 15 -9 15 -4 0 -8
-7 -8 -15z"/>
<path d="M8286 3191 c-3 -5 1 -14 8 -20 12 -10 13 -8 9 8 -6 23 -9 25 -17 12z"/>
<path d="M4531 3153 c-5 -21 -13 -50 -17 -65 -5 -24 -11 -28 -39 -28 -31 0
-33 -2 -44 -56 -12 -62 -9 -74 20 -74 10 0 19 -3 19 -8 0 -4 -14 -54 -30 -112
-54 -187 -50 -247 20 -282 43 -22 192 -25 208 -5 5 6 12 35 14 64 4 46 3 52
-19 62 -27 12 -28 20 -4 131 l17 85 41 -3 c38 -3 41 -1 47 29 13 69 8 89 -24
96 -17 3 -33 9 -35 14 -3 4 4 42 16 85 25 91 23 94 -71 94 -36 0 -75 3 -87 6
-19 5 -23 0 -32 -33z"/>
<path d="M4066 3146 c-130 -48 -206 -209 -162 -343 28 -84 109 -150 209 -168
130 -24 272 116 271 270 -1 69 -19 112 -73 168 -68 72 -167 102 -245 73z m127
-173 c51 -58 13 -173 -58 -173 -69 0 -91 107 -35 168 25 27 71 29 93 5z"/>
<path d="M5344 3120 c-23 -5 -65 -20 -93 -35 -126 -63 -177 -167 -169 -343 6
-149 48 -225 153 -280 43 -22 65 -27 161 -30 91 -3 124 0 192 18 45 12 85 26
87 31 9 14 -22 317 -34 337 -4 7 -41 6 -116 -4 -61 -7 -114 -13 -118 -14 -4 0
-7 -26 -5 -57 3 -56 4 -58 33 -63 26 -4 30 -10 33 -42 3 -31 0 -37 -20 -40
-39 -6 -90 9 -116 36 -49 48 -39 176 20 251 29 37 85 63 156 71 l62 7 0 37 c0
20 -3 58 -6 84 l-7 46 -86 -1 c-47 -1 -105 -5 -127 -9z"/>
<path d="M8267 3116 c-10 -8 -14 -16 -10 -19 5 -3 14 3 21 14 14 22 13 23 -11
5z"/>
<path d="M2194 3073 c11 -18 23 -28 24 -23 7 21 22 9 17 -13 -7 -26 28 -78 42
-63 4 5 3 11 -4 13 -7 2 -9 11 -6 20 4 11 2 14 -5 9 -13 -8 -15 2 -12 48 1 21
-2 26 -12 20 -24 -15 -40 -13 -35 5 2 11 -2 17 -13 17 -16 0 -15 -4 4 -33z"/>
<path d="M6196 3065 c-43 -18 -81 -37 -84 -40 -3 -3 -1 -18 5 -33 6 -15 45
-112 86 -217 70 -177 77 -190 99 -186 25 3 196 66 205 75 9 9 -206 436 -219
436 -7 0 -48 -16 -92 -35z"/>
<path d="M8240 3069 c0 -5 5 -7 10 -4 6 3 10 8 10 11 0 2 -4 4 -10 4 -5 0 -10
-5 -10 -11z"/>
<path d="M2885 3050 c-3 -5 -24 -10 -46 -10 -39 0 -39 0 -39 -40 l0 -40 40 0
c31 0 47 6 65 26 21 23 26 24 31 10 3 -9 16 -22 28 -28 16 -8 14 -3 -9 21 -18
20 -36 30 -47 27 -23 -6 -33 11 -18 29 7 8 10 15 7 15 -3 0 -9 -4 -12 -10z"/>
<path d="M8060 2990 c0 -27 5 -50 10 -50 6 0 10 23 10 50 0 28 -4 50 -10 50
-5 0 -10 -22 -10 -50z"/>
<path d="M8206 3024 c-5 -14 -4 -15 9 -4 17 14 19 20 6 20 -5 0 -12 -7 -15
-16z"/>
<path d="M5815 2982 c-54 -25 -111 -91 -126 -144 -33 -124 41 -286 148 -322
82 -28 222 -14 288 30 l22 14 -18 67 c-10 36 -21 68 -23 71 -3 2 -17 -5 -32
-17 -36 -28 -122 -29 -155 -2 -26 21 -29 19 46 42 22 6 63 22 91 35 l52 23 -9
45 c-13 71 -34 111 -74 142 -49 37 -148 45 -210 16z m129 -98 c9 -3 16 -17 16
-30 0 -24 -25 -46 -67 -59 -20 -5 -23 -3 -23 22 0 52 33 83 74 67z"/>
<path d="M8174 2978 c0 -10 1 -18 3 -18 1 0 7 8 12 18 7 13 6 19 -2 19 -7 0
-13 -9 -13 -19z"/>
<path d="M7375 2872 c-60 -58 -103 -101 -94 -94 12 9 16 9 16 -2 0 -8 -7 -13
-16 -11 -24 4 -53 -14 -45 -28 4 -7 4 -9 -1 -5 -9 9 -97 -61 -90 -72 3 -4 -8
-15 -23 -24 l-27 -17 24 20 c13 12 19 21 15 21 -15 -1 -90 -70 -76 -70 6 0 12
4 12 10 0 5 10 8 23 6 12 -3 28 -5 35 -5 6 -1 12 -6 12 -12 0 -7 -10 -9 -24
-7 -15 3 -27 0 -30 -8 -3 -8 -19 -14 -36 -14 -17 0 -29 4 -25 10 3 5 13 7 23
4 14 -5 14 -4 3 4 -17 12 -56 -10 -56 -31 -1 -6 -6 -11 -13 -9 -17 3 -114 -63
-104 -72 4 -4 0 -6 -8 -5 -13 3 -118 -50 -173 -86 -15 -10 -13 -12 15 -13 18
0 27 2 21 6 -9 5 -6 11 7 20 11 7 20 9 19 5 -4 -23 3 -33 22 -33 17 0 20 5 17
25 -3 14 -1 28 5 32 6 3 7 1 3 -5 -4 -7 -2 -12 3 -12 6 0 11 5 11 10 0 6 5 10
11 10 5 0 7 -4 4 -10 -4 -6 6 -11 22 -11 23 -2 24 -2 6 -6 -31 -6 -33 -53 -3
-53 11 0 20 -4 20 -10 0 -5 -9 -10 -20 -10 -11 0 -20 -4 -20 -10 0 -5 9 -10
20 -10 16 0 20 -7 20 -30 l0 -30 100 0 c93 0 100 1 100 20 0 13 7 20 20 20 13
0 20 7 20 20 0 18 7 20 80 20 l80 0 0 40 0 40 40 0 40 0 0 40 0 40 40 0 40 0
0 -74 c0 -65 2 -74 20 -79 15 -4 20 0 20 14 0 12 7 19 20 19 13 0 20 7 20 20
0 17 7 20 40 20 38 0 41 -2 38 -26 -2 -17 2 -28 12 -31 13 -4 13 -3 0 6 -13 9
-12 11 5 11 22 0 92 67 81 77 -3 4 -6 1 -6 -5 0 -7 -5 -12 -12 -12 -6 0 -3 9
7 20 14 16 21 18 27 8 6 -9 8 -7 6 7 -3 17 -12 20 -61 23 l-57 3 0 59 0 60 60
0 60 0 0 60 c0 53 2 60 20 60 18 0 20 -7 20 -79 0 -55 4 -81 13 -84 9 -3 9 -7
-1 -20 -8 -9 -11 -21 -7 -27 10 -16 25 -12 25 7 0 9 3 13 7 10 7 -8 43 21 43
34 0 4 25 31 55 60 30 28 52 56 49 61 -7 12 -29 -7 -29 -25 0 -6 -14 -21 -32
-33 -18 -12 -29 -25 -25 -28 3 -4 -1 -4 -11 0 -19 7 -23 24 -6 24 6 0 17 7 25
15 9 8 12 15 7 15 -5 0 -14 -5 -21 -12 -9 -9 -12 7 -12 75 l0 87 -60 0 -60 0
0 40 c0 33 -3 40 -20 40 -17 0 -20 7 -20 40 l0 40 -40 0 -40 0 0 -40 0 -40
-60 0 -60 0 0 -40 c0 -33 3 -40 20 -40 17 0 20 -7 20 -40 l0 -40 -100 0 c-88
0 -100 2 -101 18 -1 9 -3 29 -5 45 -1 15 1 25 7 22 5 -4 9 0 9 7 0 10 2 10 9
-1 5 -7 13 -11 18 -8 6 4 8 -4 5 -18 -3 -20 0 -25 17 -25 18 0 21 6 21 45 0
25 -3 44 -7 44 -22 -4 -24 3 -9 20 11 12 25 17 38 13 18 -4 20 -2 16 16 -6 21
16 51 24 35 3 -4 3 -2 2 5 -2 6 1 12 5 12 5 0 11 7 15 15 3 8 4 15 3 15 -1 -1
-51 -49 -112 -108z m55 28 c0 -5 -5 -10 -11 -10 -5 0 -7 5 -4 10 3 6 8 10 11
10 2 0 4 -4 4 -10z m400 -339 c0 -5 -7 -14 -15 -21 -16 -14 -18 -10 -9 14 6
17 24 22 24 7z m-850 -56 c8 0 16 -10 18 -22 4 -27 -5 -29 -29 -8 -16 15 -16
13 -12 -30 5 -40 3 -45 -15 -45 -17 0 -21 8 -24 45 -2 32 1 45 10 45 7 0 10 5
6 12 -4 7 -3 8 4 4 7 -4 12 -1 12 6 0 8 3 9 8 3 4 -5 14 -10 22 -10z m60 -65
c0 -33 -3 -40 -20 -40 -15 0 -20 7 -20 28 0 27 15 52 32 52 4 0 8 -18 8 -40z
m240 0 l0 -40 -40 0 -40 0 0 40 0 40 40 0 40 0 0 -40z m-430 5 c-7 -8 -17 -15
-23 -15 -6 0 -2 7 9 15 25 19 30 19 14 0z m791 -58 c-1 -12 -15 -9 -19 4 -3 6
1 10 8 8 6 -3 11 -8 11 -12z"/>
<path d="M2290 2930 c25 -35 42 -47 39 -29 -3 28 1 39 16 39 8 0 15 5 15 10 0
16 -38 11 -48 -6 -8 -15 -10 -15 -15 0 -4 9 -11 16 -17 16 -6 0 -2 -13 10 -30z"/>
<path d="M2975 2930 c-10 -11 -13 -20 -7 -20 6 0 12 4 14 10 2 6 9 5 18 -1 11
-8 12 -12 3 -16 -21 -8 -15 -19 11 -18 37 0 38 9 8 38 -29 27 -29 27 -47 7z"/>
<path d="M7992 2888 c-16 -16 -15 -48 1 -48 8 0 19 -11 25 -25 12 -27 27 -32
38 -13 5 7 3 8 -6 3 -8 -5 -11 -3 -9 4 3 7 7 11 9 10 7 -4 60 43 60 53 0 4 -4
8 -10 8 -5 0 -10 -6 -10 -14 0 -8 -7 -16 -14 -19 -11 -5 -14 1 -13 21 2 23 -2
27 -28 30 -17 2 -36 -3 -43 -10z"/>
<path d="M2336 2882 c-3 -5 1 -15 8 -21 11 -10 14 -9 12 3 -3 21 -13 29 -20
18z"/>
<path d="M3043 2857 c0 -8 6 -14 14 -14 9 0 10 4 2 14 -6 7 -12 13 -14 13 -1
0 -2 -6 -2 -13z"/>
<path d="M3083 2831 c-1 -12 2 -19 8 -16 10 7 58 -44 59 -62 0 -7 5 -13 12
-13 6 0 8 3 5 7 -4 3 -1 13 5 22 7 9 9 13 4 9 -5 -4 -17 3 -27 15 -10 12 -18
18 -19 14 0 -4 -10 4 -23 18 -22 26 -23 26 -24 6z"/>
<path d="M7980 2810 c0 -5 5 -10 10 -10 6 0 10 -8 10 -17 0 -13 3 -14 11 -6 9
9 8 16 -4 27 -18 18 -27 20 -27 6z"/>
<path d="M4765 2768 c-3 -24 -8 -55 -11 -70 -5 -24 -2 -27 28 -32 69 -11 202
-26 230 -26 l29 0 -3 72 -3 72 -32 7 c-18 3 -77 10 -132 13 l-99 7 -7 -43z"/>
<path d="M3204 2742 c3 -6 -2 -13 -11 -15 -16 -4 -16 -5 -1 -6 21 -1 32 15 17
25 -7 4 -9 3 -5 -4z"/>
<path d="M7973 2743 c9 -2 15 -9 12 -14 -9 -14 1 -11 13 4 8 10 5 13 -16 14
-15 0 -19 -1 -9 -4z"/>
<path d="M7938 2723 c-24 -6 -23 -19 1 -26 11 -3 22 1 25 9 6 16 -3 22 -26 17z"/>
<path d="M3215 2710 c-3 -5 -3 -10 2 -10 4 -1 -3 -7 -17 -15 -22 -12 -23 -14
-7 -20 26 -10 44 0 49 29 5 26 -14 37 -27 16z"/>
<path d="M3310 2658 c0 -2 14 -16 30 -31 17 -16 30 -24 30 -19 0 6 -13 20 -30
32 -16 12 -30 20 -30 18z"/>
<path d="M2530 2641 c0 -6 5 -13 10 -16 6 -3 10 1 10 9 0 9 -4 16 -10 16 -5 0
-10 -4 -10 -9z"/>
<path d="M2586 2587 c3 -10 9 -15 12 -12 3 3 0 11 -7 18 -10 9 -11 8 -5 -6z"/>
<path d="M3405 2580 c-3 -5 -5 -10 -3 -11 33 -8 38 -7 27 7 -14 17 -16 17 -24
4z"/>
<path d="M2615 2550 c3 -5 8 -10 11 -10 2 0 4 5 4 10 0 6 -5 10 -11 10 -5 0
-7 -4 -4 -10z"/>
<path d="M3440 2545 c-7 -9 -10 -18 -7 -21 3 -3 10 4 17 15 13 25 8 27 -10 6z"/>
<path d="M3454 2525 c-10 -8 -27 -15 -36 -15 -15 0 -18 -9 -18 -50 0 -27 5
-50 10 -50 6 0 10 15 10 33 0 32 1 33 47 35 25 1 55 5 67 8 18 6 18 7 -7 21
-15 8 -32 11 -37 8 -5 -3 -12 0 -16 6 -4 8 -3 9 4 5 7 -4 12 -2 12 3 0 15 -13
14 -36 -4z"/>
<path d="M2690 2476 c0 -2 8 -10 18 -17 15 -13 16 -12 3 4 -13 16 -21 21 -21
13z"/>
<path d="M2765 2400 c38 -39 45 -44 45 -36 0 6 -71 76 -78 76 -3 0 12 -18 33
-40z"/>
<path d="M2820 2354 c0 -3 7 -12 15 -20 16 -17 18 -14 9 10 -6 15 -24 23 -24
10z"/>
<path d="M6645 2350 c-3 -5 -1 -10 4 -10 6 0 11 -4 11 -8 0 -4 -9 -8 -19 -8
-11 0 -17 4 -15 8 3 4 1 8 -5 8 -14 0 -32 -35 -23 -45 4 -5 1 -5 -5 -1 -7 4
-13 3 -13 -1 0 -5 -9 -9 -19 -9 -11 0 -17 4 -15 8 3 4 11 8 19 8 8 0 17 5 20
11 4 5 -10 2 -32 -7 -21 -9 -77 -33 -125 -52 -48 -20 -85 -39 -82 -43 2 -4 -4
-5 -15 -2 -10 3 -22 0 -25 -6 -4 -6 -2 -11 3 -11 6 0 11 -7 11 -15 0 -8 9 -15
20 -15 13 0 20 -7 20 -20 0 -18 7 -20 59 -20 l59 0 4 65 c2 55 1 64 -12 60
-10 -4 -12 -3 -5 4 6 6 20 8 33 5 17 -5 22 -14 22 -40 0 -27 4 -34 20 -34 17
0 20 -7 20 -50 l0 -50 120 0 120 0 0 80 0 80 -39 0 c-39 0 -40 1 -43 38 -2 31
-6 36 -23 34 -16 -2 -17 -1 -5 7 12 8 12 13 2 23 -9 9 -12 9 -12 -1 0 -7 -5
-9 -10 -6 -6 4 -8 11 -5 16 4 5 2 9 -4 9 -5 0 -13 -4 -16 -10z m-240 -130 c3
-5 -1 -10 -10 -10 -9 0 -13 5 -10 10 3 6 8 10 10 10 2 0 7 -4 10 -10z"/>
<path d="M3844 2315 c11 -8 26 -15 33 -15 7 0 13 -4 13 -10 0 -5 9 -10 21 -10
11 0 17 -4 14 -10 -3 -5 -18 -10 -31 -10 -34 0 -26 -24 9 -28 19 -2 27 1 27
12 0 9 5 16 10 16 6 0 10 -6 10 -12 0 -9 4 -8 10 2 6 9 10 11 10 3 0 -7 6 -10
14 -7 8 3 17 1 21 -5 3 -6 16 -11 28 -11 18 1 16 3 -11 15 -18 8 -40 16 -50
17 -9 2 -19 6 -22 10 -3 4 -33 19 -65 33 -33 14 -51 19 -41 10z"/>
<path d="M2877 2300 c10 -11 19 -20 21 -20 1 0 -2 9 -8 20 -6 11 -15 20 -20
20 -6 0 -2 -9 7 -20z"/>
<path d="M2900 2308 c0 -4 7 -8 15 -8 8 0 15 -7 15 -15 0 -8 7 -15 15 -15 8 0
15 5 15 11 0 5 -4 7 -10 4 -5 -3 -10 3 -10 14 0 14 -6 19 -20 18 -11 -1 -20
-5 -20 -9z"/>
<path d="M7545 2309 c-4 -6 -5 -12 -2 -15 2 -3 7 2 10 11 7 17 1 20 -8 4z"/>
<path d="M7486 2252 l-19 -27 29 25 c16 14 31 26 33 28 2 1 -2 2 -10 2 -8 0
-23 -13 -33 -28z"/>
<path d="M2930 2256 c0 -2 7 -9 15 -16 13 -11 14 -10 9 4 -5 14 -24 23 -24 12z"/>
<path d="M2984 2230 c-16 -6 -15 -8 6 -23 22 -15 25 -15 42 0 30 27 2 40 -48
23z"/>
<path d="M7160 2200 c0 -33 -3 -40 -20 -40 -17 0 -20 -7 -20 -40 0 -22 -4 -40
-10 -40 -5 0 -10 -4 -10 -9 0 -14 37 -20 49 -8 8 8 11 7 11 -4 0 -8 -5 -20
-11 -26 -13 -13 -3 -36 12 -27 5 3 6 10 3 16 -4 7 -2 8 4 4 7 -4 22 0 34 8 17
12 19 16 6 16 -9 0 -19 -6 -21 -12 -3 -8 -6 -6 -6 5 -1 11 6 17 19 17 11 0 20
5 20 10 0 6 -4 10 -10 10 -6 0 -10 33 -10 80 0 73 -2 80 -20 80 -17 0 -20 -7
-20 -40z"/>
<path d="M4090 2210 c8 -5 22 -9 30 -9 10 0 8 3 -5 9 -27 12 -43 12 -25 0z"/>
<path d="M6247 2183 c-9 -2 -15 -8 -13 -11 2 -4 -6 -8 -17 -8 -29 -2 -325 -82
-312 -84 12 -3 8 -3 70 3 28 3 44 3 38 0 -9 -3 -13 -30 -13 -84 l0 -79 -180 0
-180 0 0 39 c0 35 -3 39 -32 45 -43 8 -30 17 49 32 52 10 57 12 19 9 -26 -3
-101 -10 -165 -16 -120 -11 -149 -18 -90 -21 32 -1 59 -3 87 -7 14 -1 17 -41
2 -41 -5 0 -10 -9 -10 -20 0 -16 -7 -20 -30 -20 -28 0 -30 -2 -30 -40 l0 -40
-40 0 -40 0 0 -120 0 -120 283 -1 c155 -1 306 0 336 1 53 2 54 2 49 -24 -4
-17 -1 -25 6 -23 6 3 10 10 8 17 -3 11 0 11 13 0 12 -10 21 -10 41 -1 14 6 37
11 52 12 15 0 23 2 17 5 -6 2 -9 92 -7 249 l3 245 39 0 c40 0 40 0 40 -40 l0
-40 120 0 120 0 0 -40 0 -40 -80 0 -80 0 0 -40 0 -40 40 0 40 0 0 -75 c0 -77
2 -80 44 -75 11 1 15 -3 12 -9 -4 -6 -2 -11 4 -11 8 0 10 9 6 25 -4 14 -2 25
4 25 5 0 10 -5 10 -11 0 -5 5 -7 10 -4 12 7 14 26 3 24 -21 -3 -33 2 -33 16 0
20 49 20 78 -1 13 -9 19 -20 15 -27 -5 -8 -2 -8 9 0 8 7 17 10 21 7 3 -3 14
-1 24 5 17 10 16 10 -4 11 -13 0 -23 5 -23 10 0 6 14 10 31 10 16 0 28 -4 25
-9 -4 -5 3 -7 14 -4 11 3 20 11 20 19 0 17 -23 31 -28 16 -2 -7 -21 -12 -43
-12 l-39 0 0 115 0 115 -40 0 -40 0 0 40 0 40 -101 0 -101 0 4 45 c2 35 0 45
-12 45 -13 0 -13 1 0 10 16 10 8 11 -23 3z m-62 -54 c-16 -4 -41 -7 -55 -7
-18 0 -15 3 15 13 22 6 47 10 55 6 10 -4 5 -8 -15 -12z m-121 -24 c-22 -17
-34 -19 -34 -6 0 5 8 12 18 14 32 9 36 7 16 -8z m-527 -91 c-3 -3 -12 -4 -19
-1 -8 3 -5 6 6 6 11 1 17 -2 13 -5z m23 -54 c0 -16 -4 -30 -10 -30 -5 0 -10
14 -10 30 0 17 5 30 10 30 6 0 10 -13 10 -30z m550 -370 c0 -5 -4 -10 -9 -10
-6 0 -13 5 -16 10 -3 6 1 10 9 10 9 0 16 -4 16 -10z"/>
<path d="M3060 2154 c0 -2 9 -8 20 -14 15 -8 18 -8 14 3 -4 11 -34 21 -34 11z"/>
<path d="M7338 2139 c-23 -25 -13 -24 19 1 14 11 19 20 12 19 -8 0 -22 -9 -31
-20z"/>
<path d="M5795 2065 c-35 -7 -49 -13 -35 -14 14 -2 36 -5 49 -7 14 -2 21 -1
17 3 -4 4 8 13 26 19 42 16 19 15 -57 -1z"/>
<path d="M7240 2070 c-8 -5 -10 -10 -5 -10 6 0 17 5 25 10 8 5 11 10 5 10 -5
0 -17 -5 -25 -10z"/>
<path d="M4595 2060 c4 -6 16 -8 27 -4 14 4 18 2 14 -5 -4 -6 -16 -11 -28 -11
-14 0 -18 -5 -14 -16 3 -9 6 -18 6 -20 0 -2 46 -4 103 -4 62 0 97 4 88 9 -23
15 19 22 59 11 30 -9 32 -8 19 5 -11 11 -41 16 -106 18 -51 1 -85 5 -75 8 10
4 2 8 -23 12 -57 10 -77 9 -70 -3z"/>
<path d="M5912 2020 c0 -14 2 -19 5 -12 2 6 2 18 0 25 -3 6 -5 1 -5 -13z"/>
<path d="M4906 2024 c16 -4 20 -11 16 -34 -3 -18 0 -30 7 -30 6 0 11 9 11 19
0 10 6 21 14 24 8 3 103 4 210 3 116 -2 196 0 196 5 0 6 -77 10 -182 10 -101
-1 -208 1 -238 4 -30 2 -46 2 -34 -1z"/>
<path d="M5713 2010 c14 -11 28 -20 31 -20 3 0 6 9 6 20 0 16 -7 20 -31 20
l-32 0 26 -20z"/>
<path d="M3400 2010 c0 -5 5 -10 10 -10 6 0 10 5 10 10 0 6 -4 10 -10 10 -5 0
-10 -4 -10 -10z"/>
<path d="M5780 2010 c0 -5 5 -10 10 -10 6 0 10 5 10 10 0 6 -4 10 -10 10 -5 0
-10 -4 -10 -10z"/>
<path d="M4820 2006 c0 -2 9 -6 20 -9 11 -3 20 -1 20 4 0 5 -9 9 -20 9 -11 0
-20 -2 -20 -4z"/>
<path d="M7021 1986 c-26 -28 -27 -42 -1 -49 13 -3 18 -1 13 6 -4 6 0 8 11 4
10 -4 24 1 36 13 11 11 23 20 26 19 3 0 9 3 12 7 4 4 1 4 -5 0 -7 -4 -13 -3
-13 3 0 5 5 11 11 13 6 2 -7 4 -29 5 -30 1 -45 -4 -61 -21z m59 -5 c0 -22 -23
-34 -38 -19 -15 15 -3 38 19 38 12 0 19 -7 19 -19z"/>
<path d="M3320 1991 c0 -6 5 -13 12 -17 6 -4 8 -3 4 4 -3 5 0 13 6 15 8 3 6 6
-4 6 -10 1 -18 -3 -18 -8z"/>
<path d="M6968 1988 c9 -9 15 -9 24 0 9 9 7 12 -12 12 -19 0 -21 -3 -12 -12z"/>
<path d="M3422 1938 c2 -12 10 -23 18 -25 12 -4 13 -3 1 5 -8 6 -11 17 -8 26
4 9 2 16 -4 16 -6 0 -9 -10 -7 -22z"/>
<path d="M6955 1930 c-17 -7 -17 -9 -3 -9 11 -1 15 -6 12 -16 -5 -12 -1 -12
27 2 29 15 31 17 13 24 -24 9 -25 9 -49 -1z"/>
<path d="M3460 1911 c0 -5 12 -16 26 -26 21 -13 29 -14 38 -4 8 9 8 10 -1 5
-7 -4 -18 2 -25 14 -13 20 -38 28 -38 11z"/>
<path d="M6870 1886 c0 -31 -12 -35 -131 -43 -54 -3 -99 -10 -99 -15 0 -4 6
-8 14 -8 22 0 49 -42 33 -52 -7 -4 -7 -8 -1 -8 5 0 19 7 30 15 10 8 27 15 36
15 9 0 20 5 24 12 4 7 3 8 -4 4 -7 -4 -12 -4 -12 1 0 11 60 37 67 29 4 -3 -1
-6 -10 -6 -9 0 -17 -5 -17 -10 0 -11 61 17 71 32 3 5 9 9 13 9 20 -3 26 0 20
11 -5 7 -2 9 8 6 8 -4 21 -2 29 3 12 7 12 9 -1 10 -8 1 -23 1 -32 0 -10 -1
-18 3 -18 8 0 6 -4 11 -10 11 -5 0 -10 -11 -10 -24z m-150 -96 c0 -5 -4 -10
-10 -10 -5 0 -10 5 -10 10 0 6 5 10 10 10 6 0 10 -4 10 -10z"/>
<path d="M3535 1871 c-7 -6 29 -30 37 -25 16 10 7 33 -12 31 -12 -1 -23 -3
-25 -6z"/>
<path d="M3678 1843 c-21 -5 -24 -19 -5 -25 19 -7 87 3 87 13 0 5 -9 9 -19 9
-11 0 -25 2 -33 4 -7 2 -21 2 -30 -1z"/>
<path d="M3615 1820 c3 -5 8 -10 11 -10 2 0 4 5 4 10 0 6 -5 10 -11 10 -5 0
-7 -4 -4 -10z"/>
<path d="M3695 1790 c3 -5 8 -10 11 -10 2 0 4 5 4 10 0 6 -5 10 -11 10 -5 0
-7 -4 -4 -10z"/>
<path d="M3750 1765 c7 -8 17 -15 22 -15 5 0 3 7 -6 15 -8 8 -18 15 -22 15 -3
0 -1 -7 6 -15z"/>
<path d="M3880 1721 c-22 -6 -23 -8 -7 -14 24 -9 24 -9 31 8 3 8 4 15 3 14 -1
-1 -13 -4 -27 -8z"/>
<path d="M3946 1692 c-3 -6 3 -12 14 -15 11 -3 23 0 27 6 3 7 3 9 -2 5 -4 -4
-14 -3 -21 3 -7 6 -15 6 -18 1z"/>
<path d="M6360 1681 c0 -5 -10 -7 -22 -4 -21 5 -20 4 5 -17 23 -18 31 -20 40
-10 10 10 8 12 -8 6 -19 -6 -19 -5 -2 8 15 12 16 14 2 20 -8 3 -15 1 -15 -3z"/>
<path d="M3996 1671 c-3 -5 2 -11 12 -13 11 -3 19 0 19 8 0 16 -23 19 -31 5z"/>
<path d="M6280 1670 c0 -5 5 -10 10 -10 6 0 10 5 10 10 0 6 -4 10 -10 10 -5 0
-10 -4 -10 -10z"/>
<path d="M6400 1661 c0 -5 9 -7 20 -4 11 3 20 7 20 9 0 2 -9 4 -20 4 -11 0
-20 -4 -20 -9z"/>
<path d="M6301 1651 c-11 -7 -11 -9 0 -14 8 -3 -7 -4 -33 -3 -27 2 -48 -1 -48
-5 0 -5 6 -9 13 -9 8 0 7 -4 -3 -11 -12 -8 -10 -9 10 -5 14 4 37 9 53 12 15 4
27 13 28 23 0 10 2 11 6 4 2 -7 9 -13 14 -13 4 0 6 7 3 15 -7 17 -22 19 -43 6z"/>
<path d="M4145 1616 c76 -24 95 -27 95 -15 0 7 -3 10 -6 7 -3 -3 -29 0 -57 8
-64 17 -87 17 -32 0z"/>
<path d="M6188 1593 c7 -3 16 -2 19 1 4 3 -2 6 -13 5 -11 0 -14 -3 -6 -6z"/>
<path d="M5900 1569 c0 -6 -7 -8 -16 -5 -25 10 -54 -3 -54 -24 0 -10 -8 -21
-17 -23 -51 -13 31 -4 107 12 64 14 80 20 63 25 -13 4 -23 12 -23 17 0 5 -13
9 -30 9 -16 0 -30 -5 -30 -11z m14 -30 c-31 -12 -39 -10 -19 5 11 8 24 12 29
8 5 -3 1 -9 -10 -13z"/>
<path d="M4803 1523 c-18 -2 -33 -8 -33 -13 0 -5 -12 -11 -27 -13 -23 -4 -22
-5 7 -5 19 1 43 -3 53 -7 10 -4 48 -5 85 -2 43 4 60 3 47 -3 -14 -6 -1 -8 45
-8 59 1 61 2 20 7 -36 5 -44 10 -42 24 2 12 -4 17 -20 16 -21 0 -21 -1 -3 -8
14 -6 7 -9 -29 -14 -73 -10 -114 -9 -96 3 8 5 32 10 53 10 23 0 36 4 32 10 -6
10 -29 11 -92 3z"/>
<path d="M5510 1519 c0 -5 19 -9 42 -9 23 0 38 3 34 7 -11 11 -76 13 -76 2z"/>
<path d="M5625 1520 c-3 -5 -1 -10 4 -10 6 0 11 5 11 10 0 6 -2 10 -4 10 -3 0
-8 -4 -11 -10z"/>
<path d="M4640 1509 c0 -11 44 -10 80 0 19 6 12 8 -27 8 -29 0 -53 -3 -53 -8z"/>
<path d="M5300 1504 c-23 -13 -18 -14 58 -14 66 0 82 3 82 15 0 20 -104 19
-140 -1z"/>
<path d="M5729 1507 c5 -5 19 -7 32 -5 20 3 19 5 -9 9 -20 3 -29 2 -23 -4z"/>
<path d="M5555 1490 l-50 -7 52 -1 c28 -1 55 3 58 8 3 6 3 9 -2 8 -4 0 -30 -4
-58 -8z"/>
<path d="M5653 1493 c9 -2 23 -2 30 0 6 3 -1 5 -18 5 -16 0 -22 -2 -12 -5z"/>
<path d="M5175 1470 c-70 -6 -70 -6 30 -8 68 -1 95 1 85 8 -8 5 -22 9 -30 8
-8 -1 -46 -4 -85 -8z"/>
<path d="M5363 1473 c26 -2 68 -2 95 0 26 2 4 3 -48 3 -52 0 -74 -1 -47 -3z"/>
</g>
</svg>
